<svg xmlns="http://www.w3.org/2000/svg" width="168" height="299" fill="none" viewBox="0 0 168 299">
  <g clip-path="url(#a)">
    <path fill="#90BF96" d="M100.479 118.065c-.552-2.688-1.112-5.385-1.664-8.073-.292-1.411-.552-2.998.243-4.208 1.011-1.545 3.193-1.678 5.033-1.595 1.772.084 3.678.284 4.999 1.461.561.501.97 1.152 1.347 1.812a22.366 22.366 0 0 1 2.407 6.454c.235 1.16.41 2.388 1.138 3.323.752.96 1.956 1.419 2.976 2.095 2.341 1.545 3.737 4.417 3.503 7.206-.15 1.82-.945 3.573-.895 5.402.101 3.657 3.495 6.712 3.269 10.361-.1 1.628-.919 3.106-1.504 4.634a17.064 17.064 0 0 0-.895 8.917c.209 1.244.56 2.488.41 3.74-.234 1.945-1.815 3.649-3.738 4.041"/>
    <path fill="#000" d="M100.78 117.982c-.335-1.611-.669-3.231-1.003-4.843-.335-1.611-.845-3.323-.928-4.992-.193-3.59 3.319-3.799 6.019-3.599 1.397.109 2.901.359 3.988 1.328 1.204 1.06 1.932 2.838 2.517 4.299a22.731 22.731 0 0 1 1.154 3.833c.251 1.194.426 2.471 1.212 3.456.661.827 1.622 1.294 2.517 1.82 1.312.777 2.366 1.837 3.06 3.207a7.54 7.54 0 0 1 .827 3.74c-.067 1.578-.669 3.064-.852 4.625-.293 2.455.836 4.576 1.881 6.713.518 1.069 1.036 2.163 1.245 3.331.31 1.745-.309 3.323-.978 4.901-1.254 2.964-1.839 6.087-1.446 9.301.2 1.628.844 3.34.418 4.976-.427 1.637-1.781 2.856-3.403 3.248-.393.092-.226.702.167.601a5.18 5.18 0 0 0 3.988-5.276c-.075-1.77-.627-3.465-.669-5.244a16.696 16.696 0 0 1 .745-5.318c.493-1.586 1.354-3.047 1.722-4.676.293-1.294.175-2.588-.243-3.84-.911-2.722-3.026-5.185-2.842-8.182.1-1.653.744-3.206.878-4.86a8.15 8.15 0 0 0-.636-3.807 8.286 8.286 0 0 0-2.458-3.256c-1.078-.852-2.575-1.311-3.453-2.438-1.011-1.302-1.037-3.248-1.471-4.792a22.25 22.25 0 0 0-1.706-4.3c-.627-1.202-1.338-2.405-2.55-3.098-1.095-.626-2.374-.826-3.62-.918-2.425-.184-5.886-.125-6.555 2.822-.368 1.611.2 3.365.518 4.943l1.33 6.462c.083.392.685.225.602-.167h.025Z"/>
    <path fill="#90BF96" d="M117.042 163.46c-1.597-1.395-1.497-3.983-2.86-5.611-1.48-1.778-4.281-1.97-5.76-3.749-.535-.634-.845-1.427-1.079-2.229-.903-3.139-.819-6.854-3.169-9.125-1.429-1.386-3.519-1.929-4.958-3.307-1.295-1.244-1.922-3.014-2.625-4.667-1.12-2.622-2.625-5.185-4.95-6.821-.71-.501-1.496-.919-2.014-1.612-.41-.551-.61-1.235-.753-1.912a13.913 13.913 0 0 1-.284-3.331c.058-1.703.443-3.456 1.488-4.801 1.271-1.653 3.478-2.521 5.543-2.212 2.066.309 3.905 1.77 4.716 3.69"/>
    <path fill="#000" d="M117.259 163.234c-1.572-1.494-1.463-3.899-2.809-5.552-1.171-1.436-3.035-1.853-4.557-2.772-2.274-1.369-2.517-4.116-2.968-6.487-.359-1.879-.794-3.824-2.023-5.343-1.455-1.796-3.829-2.305-5.46-3.866-1.722-1.653-2.282-4.183-3.344-6.254-.978-1.92-2.24-3.732-3.971-5.043-1.02-.776-2.19-1.294-2.676-2.579-.485-1.286-.577-2.722-.552-4.066.059-2.998 1.346-5.962 4.482-6.772 2.792-.718 5.534.869 6.688 3.424.167.367.703.05.544-.318-1.823-4.049-7.333-5.301-10.451-1.903-1.672 1.828-2.024 4.491-1.848 6.871.084 1.102.218 2.313.702 3.323.519 1.094 1.522 1.636 2.475 2.313 2.207 1.578 3.637 3.966 4.707 6.403.987 2.246 1.773 4.476 3.905 5.895 1.02.676 2.157 1.144 3.152 1.862 1.204.876 1.956 2.104 2.416 3.498.761 2.304.777 4.834 1.722 7.08 1.054 2.505 3.512 2.839 5.56 4.217 2.308 1.552 1.94 4.667 3.863 6.495.292.276.735-.167.443-.442v.016Z"/>
    <path fill="#000" d="M93.08 130.664c-2.032 7.281-2.074 14.92-2.283 22.426l-.326 12.006c-.092 3.44-.468 7.114.72 10.42.267.751 1.48.426 1.212-.334-1.196-3.323-.761-7.047-.661-10.503.109-3.866.209-7.732.318-11.597.2-7.389.234-14.912 2.232-22.092.217-.777-.995-1.111-1.212-.334v.008Z"/>
    <path fill="#90BF96" d="M100.262 118.767c3.453 1.252 6.638 3.916 7.39 7.506.218 1.027.226 2.079.318 3.122.41 4.709 2.475 9.092 4.507 13.367 1.354 2.847 2.708 5.686 4.063 8.533.251.518.502 1.044.652 1.603.159.568.209 1.161.259 1.753.092 1.011.184 2.021.268 3.04.15 1.644.267 3.414-.594 4.817"/>
    <path fill="#000" d="M100.178 119.076c2.625.985 5.108 2.713 6.438 5.243.777 1.486.886 3.056 1.011 4.692.117 1.495.368 2.964.753 4.409.819 3.064 2.149 5.952 3.503 8.808 1.455 3.081 2.943 6.145 4.389 9.226.853 1.811.92 3.69 1.096 5.66.158 1.762.393 3.616-.502 5.227-.192.351.343.668.543.317.686-1.235.795-2.588.719-3.974a70.837 70.837 0 0 0-.426-4.817c-.201-1.587-1.053-3.098-1.756-4.576-.827-1.728-1.647-3.465-2.475-5.193-1.596-3.356-3.285-6.704-4.322-10.286-.527-1.837-.803-3.682-.936-5.577-.101-1.428-.326-2.797-.97-4.091-1.38-2.747-4.064-4.609-6.881-5.669-.376-.142-.544.467-.167.601h-.017Z"/>
    <path fill="#90BF96" d="m110.119 36.135-4.289-20.798c-.753-3.64-1.422-7.723.618-10.828C109.057.534 114.667.175 119.416.4c4.565.208 9.481.718 12.884 3.765 1.446 1.294 2.508 2.964 3.453 4.66a57.807 57.807 0 0 1 6.212 16.622c.61 2.98 1.053 6.154 2.926 8.55 1.94 2.48 5.041 3.665 7.675 5.393 6.028 3.974 9.623 11.364 9.021 18.56-.393 4.693-2.424 9.21-2.299 13.919.259 9.426 9.005 17.282 8.419 26.692-.259 4.191-2.366 8.007-3.879 11.922a43.8 43.8 0 0 0-2.299 22.961c.543 3.197 1.455 6.412 1.053 9.635-.61 5.001-4.673 9.392-9.615 10.403"/>
    <path fill="#000" d="M110.42 36.052c-.895-4.35-1.798-8.7-2.692-13.05-.828-4.024-2.024-8.149-2.291-12.257-.243-3.673.986-7.113 4.464-8.766 2.868-1.37 6.254-1.403 9.364-1.27 3.537.151 7.299.435 10.493 2.096 3.637 1.896 5.577 5.653 7.307 9.201a57.15 57.15 0 0 1 4.139 11.497c.819 3.373 1.045 7.155 3.018 10.11 1.856 2.781 5.033 4.067 7.767 5.787 2.935 1.845 5.318 4.467 6.94 7.522 1.622 3.056 2.508 6.588 2.391 10.086-.134 4.016-1.631 7.823-2.166 11.78-.911 6.722 2.392 12.416 5.201 18.26 1.429 2.964 2.75 6.095 3.01 9.41.317 4.066-1.28 7.79-2.826 11.455-3.035 7.163-4.498 14.761-3.729 22.543.401 4.057 1.873 8.132 1.496 12.231-.309 3.423-2.282 6.588-5.066 8.566a11.779 11.779 0 0 1-4.356 1.912c-.393.084-.226.693.167.601 3.052-.668 5.727-2.479 7.558-4.992 2.157-2.948 2.659-6.404 2.191-9.961-.268-2.029-.753-4.016-1.062-6.028a42.992 42.992 0 0 1-.51-6.479 43.65 43.65 0 0 1 1.856-12.724c1.246-4.116 3.294-7.665 4.364-11.697.895-3.365.661-6.738-.409-10.028-2.107-6.462-6.814-12.164-7.391-19.102-.36-4.334 1.245-8.45 1.964-12.658.594-3.456.385-6.938-.735-10.27-1.054-3.113-2.826-6.002-5.176-8.307-2.591-2.546-5.952-3.79-8.778-5.994-3.37-2.622-3.896-6.638-4.732-10.554a58.54 58.54 0 0 0-3.78-11.588c-1.555-3.482-3.352-7.481-6.412-9.902-2.726-2.154-6.229-2.898-9.615-3.215-5.593-.534-14.121-.993-16.83 5.235-1.413 3.248-.619 6.98.067 10.303.936 4.55 1.881 9.109 2.817 13.66.46 2.245.928 4.483 1.388 6.729.084.392.686.225.602-.167l-.008.025Z"/>
    <path fill="#90BF96" d="M152.767 153.048c-4.114-3.598-3.863-10.261-7.358-14.46-3.804-4.576-11.036-5.077-14.848-9.652-1.371-1.645-2.174-3.69-2.768-5.744-2.332-8.091-2.098-17.642-8.16-23.503-3.687-3.565-9.063-4.976-12.766-8.525-3.345-3.206-4.942-7.764-6.756-12.022-2.876-6.746-6.755-13.35-12.75-17.567-1.823-1.277-3.863-2.363-5.184-4.15-1.061-1.427-1.563-3.18-1.93-4.917a36.481 36.481 0 0 1-.745-8.583c.142-4.383 1.145-8.892 3.83-12.374 3.277-4.258 8.962-6.487 14.28-5.685 5.317.801 10.066 4.558 12.139 9.51"/>
    <path fill="#000" d="M152.984 152.823c-4.063-3.682-3.821-9.819-7.04-14.06-3.218-4.241-8.77-5.093-12.908-8.007-5.151-3.623-5.728-10.703-6.814-16.398-.995-5.218-2.266-10.77-6.146-14.677-4.347-4.375-10.927-5.636-14.706-10.696-1.89-2.521-3.093-5.468-4.297-8.357-1.146-2.747-2.358-5.469-3.83-8.057-1.471-2.588-3.21-5.118-5.258-7.33-2.049-2.213-4.49-3.866-6.973-5.62-1.405-.993-2.634-2.137-3.378-3.715-.744-1.578-1.087-3.323-1.371-5.026-.577-3.565-.677-7.29-.067-10.854.543-3.198 1.706-6.37 3.846-8.85 1.956-2.263 4.623-3.874 7.508-4.642 5.819-1.545 11.956.66 15.709 5.301a15.95 15.95 0 0 1 2.216 3.699c.159.367.702.05.544-.317-2.208-5.11-7.074-8.967-12.634-9.694-5.56-.726-11.261 1.678-14.53 6.154-3.938 5.377-4.223 12.84-3.228 19.178.502 3.214 1.338 6.303 3.938 8.449 1.146.944 2.425 1.695 3.637 2.546a26.895 26.895 0 0 1 3.88 3.349c4.673 4.834 7.399 10.92 9.982 17.023 1.179 2.797 2.467 5.603 4.44 7.94 1.973 2.338 4.64 3.908 7.315 5.377 2.676 1.47 5.577 3.048 7.642 5.486 1.948 2.304 3.119 5.143 3.93 8.015 1.613 5.736 1.73 12.065 4.314 17.5 2.583 5.435 8.486 6.671 13.293 9.601 2.575 1.57 4.256 3.741 5.359 6.529 1.004 2.539 1.614 5.244 2.927 7.665a10.95 10.95 0 0 0 2.274 2.939c.301.267.744-.176.443-.443l-.017-.008ZM72.63 107.462c4.02 14.419 4.924 29.473 5.409 44.367.518 15.63.861 31.268 1.279 46.898.217 8.082 1.012 16.706-1.831 24.446-.276.76.936 1.085 1.212.334 2.483-6.755 2.157-14.177 1.965-21.249l-.652-24.079c-.418-15.462-.435-31.008-1.89-46.421-.777-8.307-2.048-16.581-4.297-24.622-.217-.776-1.43-.442-1.212.334l.016-.008Z"/>
    <path fill="#000" d="M93.339 67.996c-4.749 14.21-5.894 29.288-6.488 44.158-.644 15.997-1.053 32.011-1.572 48.016-.259 7.932-.953 16.365 2.325 23.812.326.735 1.404.1 1.086-.635-2.9-6.587-2.45-14.076-2.224-21.098l.778-23.987c.493-15.17.527-30.458 2.216-45.561.92-8.266 2.458-16.481 5.1-24.38.259-.768-.954-1.094-1.213-.334l-.008.009Z"/>
    <path fill="#90BF96" d="M15.074 189.818c-4.94-1.01-9.004-5.402-9.614-10.403-.393-3.223.51-6.437 1.053-9.635a43.795 43.795 0 0 0-2.3-22.96c-1.512-3.916-3.62-7.731-3.879-11.923-.585-9.409 8.16-17.266 8.42-26.692.125-4.709-1.898-9.217-2.3-13.918-.601-7.189 2.994-14.586 9.022-18.56 2.625-1.728 5.735-2.914 7.675-5.394 1.873-2.396 2.316-5.569 2.926-8.55a57.443 57.443 0 0 1 6.212-16.622c.953-1.695 2.007-3.365 3.453-4.66 3.403-3.047 8.319-3.556 12.884-3.765 4.749-.217 10.359.142 12.967 4.108 2.04 3.106 1.371 7.189.619 10.829l-4.289 20.798"/>
    <path fill="#000" d="M15.158 189.518c-3.328-.727-6.204-2.873-7.918-5.811-2.065-3.566-1.647-7.456-.894-11.339 1.488-7.706 1.446-15.412-.903-22.951-1.162-3.741-3.094-7.206-4.155-10.98-.995-3.54-.728-7.021.46-10.478 2.09-6.061 6.262-11.396 7.156-17.859.51-3.682-.41-7.247-1.246-10.803-.836-3.557-1.312-7.373-.41-11.138a20.749 20.749 0 0 1 4.883-9.168c2.375-2.571 5.518-3.982 8.428-5.936 2.91-1.954 4.356-4.534 5.133-7.848.887-3.774 1.58-7.514 2.893-11.18 1.313-3.665 3.043-7.58 5.31-10.887 2.265-3.306 5.643-4.951 9.547-5.602 3.252-.543 6.739-.735 10.025-.4 3.285.333 6.605 1.444 8.193 4.45 1.89 3.564.67 7.94-.092 11.638-.886 4.283-1.764 8.566-2.65 12.85l-1.304 6.32c-.084.392.526.559.602.166l2.817-13.659c.828-4.032 2.065-8.19 2.216-12.323.117-3.181-.887-6.279-3.62-8.124-2.55-1.72-5.828-2.062-8.83-2.07-3.444-.017-7.09.192-10.4 1.227-3.57 1.119-6.053 3.431-7.943 6.612-2.098 3.54-3.77 7.356-5.05 11.264a57.73 57.73 0 0 0-1.605 6.044c-.384 1.837-.669 3.707-1.28 5.486-.701 2.054-1.889 3.748-3.636 5.05-1.446 1.078-3.068 1.88-4.607 2.798a20.88 20.88 0 0 0-7.106 7.005c-1.773 2.889-2.784 6.02-3.044 9.3-.317 4 .878 7.79 1.698 11.656.819 3.866.719 7.665-.653 11.48-1.17 3.282-2.9 6.321-4.38 9.468-1.363 2.906-2.55 5.953-2.776 9.176-.268 3.857 1.154 7.447 2.633 10.937 1.69 3.983 3.052 7.999 3.679 12.29a43.893 43.893 0 0 1-.075 13.15c-.61 3.824-1.848 7.757-.845 11.622.786 2.989 2.734 5.636 5.293 7.356a12.277 12.277 0 0 0 4.264 1.812c.393.083.56-.518.167-.601h.025Z"/>
    <path fill="#000" d="M60.941 69.423c-6.688 2.421-13.026 6.588-17.014 12.582-2.057 3.09-3.277 6.538-3.712 10.211-.276 2.372-.326 4.76-.585 7.139a57.508 57.508 0 0 1-1.22 6.997c-2.116 9.025-6.054 17.491-10.067 25.815-2.14 4.45-4.298 8.892-6.446 13.334-2.149 4.442-4.465 8.833-6.413 13.358-.978 2.271-1.32 4.592-1.547 7.03-.25 2.714-.493 5.427-.735 8.132-.393 4.409-.703 9.118 1.663 13.067.21.342.753.033.544-.317-2.182-3.649-1.99-7.991-1.639-12.073.192-2.263.41-4.517.61-6.78.218-2.404.31-4.884 1.054-7.197.744-2.312 1.965-4.483 3.018-6.662 1.053-2.179 2.057-4.25 3.077-6.371 2.082-4.308 4.163-8.616 6.245-12.933 3.813-7.881 7.667-15.805 10.158-24.221 1.213-4.082 2.082-8.274 2.442-12.515.36-4.241.468-8.566 2.324-12.574 3.478-7.497 10.785-12.674 18.394-15.42.376-.134.217-.744-.167-.602h.016Z"/>
    <path fill="#90BF96" d="M15.267 189.384c4.113-3.599 3.862-10.261 7.357-14.461 3.804-4.575 11.036-5.076 14.849-9.651 1.37-1.645 2.174-3.691 2.767-5.745 2.333-8.09 2.099-17.641 8.16-23.503 3.687-3.565 9.063-4.976 12.767-8.524 3.344-3.206 4.941-7.765 6.755-12.023 2.877-6.746 6.756-13.35 12.75-17.566 1.823-1.278 3.863-2.363 5.184-4.15 1.062-1.428 1.564-3.181 1.931-4.918.586-2.813.837-5.702.744-8.583-.142-4.383-1.145-8.891-3.829-12.373-3.277-4.258-8.962-6.487-14.28-5.686-5.317.802-10.066 4.559-12.14 9.51"/>
    <path fill="#000" d="M15.492 189.609c4.223-3.824 3.821-10.202 7.358-14.46 3.536-4.258 9.807-4.893 13.862-8.625 2.316-2.129 3.394-5.126 4.163-8.107.77-2.981 1.204-5.861 1.798-8.792.594-2.93 1.28-5.869 2.575-8.566 1.363-2.847 3.378-5.135 6.012-6.871 2.633-1.737 5.5-2.956 8.06-4.759 2.558-1.804 4.347-4.083 5.776-6.772 1.522-2.863 2.592-5.927 3.938-8.875 1.346-2.947 2.893-5.794 4.774-8.424 1.881-2.63 4.29-5.227 7.048-7.172 2.5-1.762 5.109-3.19 6.346-6.145 1.313-3.123 1.639-6.846 1.68-10.203.042-3.356-.334-6.587-1.47-9.66-2.05-5.51-6.781-9.476-12.642-10.294-5.635-.785-11.262 1.737-14.698 6.203a16.372 16.372 0 0 0-2.032 3.465c-.159.368.385.685.544.318 2.315-5.369 7.641-9.318 13.56-9.51 6.346-.2 12.115 3.648 14.473 9.493 1.246 3.089 1.655 6.462 1.639 9.777-.017 3.314-.326 7.422-1.831 10.603-1.413 2.98-4.565 4.317-7.04 6.254-2.316 1.82-4.306 4.016-6.028 6.403-1.823 2.53-3.336 5.277-4.657 8.099-1.321 2.822-2.374 5.786-3.77 8.583-1.397 2.797-3.287 5.435-5.937 7.306-2.425 1.711-5.15 2.905-7.65 4.491-2.316 1.47-4.297 3.315-5.727 5.67-1.43 2.354-2.274 4.9-2.918 7.514-.677 2.755-1.12 5.56-1.68 8.332-.61 3.031-1.255 6.254-2.893 8.925-3.002 4.918-9.214 5.703-13.578 8.909-1.965 1.444-3.302 3.34-4.239 5.577-1.062 2.522-1.647 5.227-2.884 7.673-.61 1.202-1.371 2.279-2.375 3.19-.3.267.142.709.443.442v.008Z"/>
    <path fill="#fff" d="M43.877 49.402c-1.747.526-3.06 2.263-3.085 4.091-.017 1.052.351 2.07.71 3.064l.628 1.728c.108.301.217.602.426.844.326.375.836.534 1.338.56.903.04 1.789-.31 2.566-.786 2.25-1.369 3.813-3.815 4.114-6.428.117-1.02 0-2.163-.744-2.864-.418-.393-.97-.593-1.522-.727a8.876 8.876 0 0 0-4.74.134M33.067 61.04c-.728.752-.945 1.896-.811 2.94.133 1.043.577 2.012 1.011 2.972.1.217.2.442.393.584.218.167.519.2.794.184 1.815-.108 3.094-1.812 3.838-3.473.134-.31.267-.618.351-.944.218-.81.15-1.661.092-2.496-.017-.267-.05-.56-.25-.727-.143-.116-.335-.158-.51-.183-.937-.15-1.899-.276-2.827-.075-.928.2-1.822.793-2.14 1.678m12.165 4.05c-.627-.31-1.405.05-1.89.567-1.078 1.144-1.254 2.864-1.145 4.433.017.21.033.426.109.618.225.551.87.827 1.463.86 1.02.067 2.031-.367 2.767-1.077.736-.71 1.196-1.67 1.396-2.663.126-.61.16-1.261-.091-1.837-.276-.643-.862-1.094-1.48-1.428-.41-.225-.903-.409-1.338-.225M31.82 81.83c-1.211 1.035-1.847 2.714-1.613 4.291.234 1.579 1.321 3.006 2.776 3.65.2.091.426.166.635.091.293-.1.41-.434.569-.693.778-1.27 2.734-1.085 3.871-2.037.602-.501.903-1.27 1.179-2.004.36-.977.71-1.996.694-3.04-.017-1.043-.477-2.145-1.388-2.654-.953-.526-2.174-.3-3.119.234-.944.534-1.697 1.36-2.516 2.079-.393.342-.878.693-1.388.576m-15.417 5.544c-.377-.034-.736.225-.945.559-.21.334-.301.726-.385 1.119-.1.467-.209.935-.309 1.402-.075.351-.15.735 0 1.06.167.385.577.56.953.71.31.126.61.243.92.368.2.075.401.158.619.125.234-.033.426-.192.618-.342 1.054-.877 2.157-1.837 2.575-3.173.168-.526.201-1.144-.117-1.586-.267-.376-.71-.535-1.145-.652-.945-.25-1.973-.342-2.868.067m7.55-16.556c-.284-.042-.56.142-.702.392-.143.25-.168.543-.168.827 0 .492.067.985.201 1.453.067.233.159.475.334.642.168.16.393.234.61.301.419.117.845.2 1.28.242.184.017.385.034.552-.05.192-.092.31-.284.426-.468.184-.292.36-.592.544-.885.2-.325.4-.66.501-1.026.1-.368.084-.785-.133-1.103-.343-.5-1.037-.584-1.64-.584-.442 0-.886.017-1.32.058m-.92 26.826c-.418.568-.485 1.311-.552 2.012-.017.2-.033.401 0 .602.042.217.142.417.251.609.167.292.343.576.527.86.134.2.276.392.46.551.4.342.978.434 1.505.359.526-.075 1.02-.284 1.505-.501.2-.083.4-.175.551-.342.142-.159.21-.368.268-.576.142-.493.234-.994.326-1.495l.3-1.603c.11-.55.202-1.169-.083-1.653-.292-.5-.911-.71-1.488-.768-.694-.067-1.405.042-2.023.35-.619.31-1.146.827-1.422 1.462m-11.036 15.245a1.813 1.813 0 0 0-.903 1.503 1.82 1.82 0 0 0 .82 1.553c.393.251.86.342 1.32.426.26.05.52.092.77.142.142.025.293.05.435 0 .2-.067.317-.276.401-.459.435-.91.719-1.896.836-2.898.025-.242.034-.509-.134-.684-.134-.142-.334-.176-.526-.192a5.25 5.25 0 0 0-2.676.451m12.124 3.114c-.268.2-.402.526-.52.835-.1.275-.192.551-.275.826-.067.217-.125.435-.117.652 0 .342.15.659.3.96.143.284.31.584.586.743.217.117.468.142.71.142.636 0 1.28-.084 1.89-.267.142-.042.285-.092.418-.167.251-.142.443-.359.61-.593.502-.693.812-1.503 1.121-2.305.092-.242.184-.492.192-.751a2.46 2.46 0 0 0-.125-.693c-.126-.426-.301-.885-.686-1.119-.209-.133-.46-.175-.71-.217-.31-.05-.636-.1-.945-.042-.326.059-.61.226-.903.384-.368.209-.744.418-1.112.627-.426.242-.895.542-.953 1.027m-15.727 9.793c-.284.184-.393.785-.468 1.319-.092.677-.175 1.378-.125 2.071.05.693.276 1.378.635 1.628a1.1 1.1 0 0 0 .343.142l.384.1c.126.034.26.067.377-.008.1-.067.175-.192.25-.326.72-1.319 1.004-3.365.72-5.143-.042-.259-.1-.526-.226-.668-.142-.158-.335-.092-.493-.008a4.84 4.84 0 0 0-1.246.96m6.32 12.791c-.292.392-.4.91-.376 1.394.025.484.168.969.335 1.428.184.518.393 1.027.719 1.469.326.443.769.81 1.296.961.894.25 1.847-.176 2.608-.719.335-.242.66-.509.903-.843.243-.334.393-.718.544-1.102.434-1.11.844-2.229 1.095-3.39.159-.743.25-1.511.075-2.254-.175-.743-.66-1.436-1.371-1.695-.343-.125-.72-.15-1.087-.15-.594 0-1.196.075-1.772.209-.343.075-.686.183-.954.409-.242.209-.392.501-.543.785a25.444 25.444 0 0 0-1.446 3.531m-4.674 28.053c-.727.268-1.204 1.002-1.354 1.754-.151.751-.017 1.544.2 2.287.084.301.192.61.418.827.326.309.861.342 1.263.142.401-.2.685-.593.836-1.01.15-.418.184-.877.2-1.328a17.531 17.531 0 0 0-.108-2.296c-.017-.15-.059-.334-.2-.392a.48.48 0 0 0-.218-.009c-.184.025-.377.05-.56.076m56.518-94.404c-.251.158-.51.325-.66.584-.068.117-.11.25-.134.384-.11.56.008 1.136.175 1.687.042.133.084.258.159.367.092.117.217.2.351.276.485.258 1.07.409 1.597.225.51-.175.878-.635 1.137-1.11a4.672 4.672 0 0 0 .535-1.954c.017-.259 0-.535-.134-.752-.125-.208-.35-.342-.585-.4a2.084 2.084 0 0 0-.719-.034 5.05 5.05 0 0 0-1.212.25c-.243.076-.502.21-.56.452m8.62 11.246c-.494.184-.711.751-.828 1.26a10.825 10.825 0 0 0-.192 3.916c.016.126.033.25.108.351.084.117.234.184.376.225.736.234 1.539.226 2.308.1.351-.058.694-.141.995-.325.393-.242.669-.643.911-1.035.703-1.127 1.271-2.488.895-3.757-.092-.318-.243-.61-.393-.902-.134-.267-.276-.551-.493-.76-.26-.25-.602-.392-.954-.484-.601-.15-1.254-.159-1.822.1-.569.259-1.012.81-1.037 1.428m-29.764 33.188c-.242-.059-.493.083-.635.284-.142.2-.201.45-.243.693a7.72 7.72 0 0 0-.108 1.519c.008.418.083.893.426 1.144.192.133.435.175.669.209.393.05.794.091 1.179.016.384-.075.769-.275.978-.609.15-.242.192-.535.217-.81.042-.643-.075-1.311-.443-1.837s-1.037-.868-1.664-.743m8.712-30.341c-.267.284-.217.743-.142 1.127.126.593.276 1.186.585 1.704.31.517.795.951 1.38 1.085.142.033.284.042.426.017.126-.025.234-.092.351-.159 1.004-.56 2.057-1.186 2.55-2.22.11-.235.193-.485.26-.744.225-.893.25-1.862-.067-2.722-.318-.86-1.02-1.611-1.907-1.862a3.424 3.424 0 0 0-1.011-.108c-.226 0-.468.017-.652.142a1.346 1.346 0 0 0-.318.334 9.687 9.687 0 0 0-1.664 4.058m-7.516 15.429c-.602 1.352-.326 2.939.226 4.308.184.467.443.952.903 1.152.242.109.526.117.794.117.443 0 .903 0 1.304-.192.569-.259.928-.818 1.246-1.344.259-.426.51-.852.677-1.319.217-.593.293-1.219.334-1.846.059-.835.059-1.686-.125-2.504-.184-.819-.569-1.612-1.187-2.171-.1-.092-.21-.184-.343-.234-.234-.1-.502-.067-.752-.017a4.29 4.29 0 0 0-2.517 1.629 4.243 4.243 0 0 0-.803 2.88m19.773-6.871c-.618-.084-1.212.367-1.613.86-.15.183-.293.392-.326.626-.017.15.016.3.058.442.067.25.143.493.234.727.143.367.335.734.686.918.343.184.778.15 1.17.075a7.102 7.102 0 0 0 1.715-.56c.225-.108.443-.225.618-.4.234-.234.351-.56.393-.877a1.952 1.952 0 0 0-.401-1.419 1.97 1.97 0 0 0-1.305-.718c-.535-.067-1.078.084-1.605.242m-26.428 13.876c-.242.192-.368.501-.393.81-.025.309.034.618.092.919.025.15.059.3.126.442.125.234.359.393.61.468.25.075.526.066.786.041a.479.479 0 0 0 .217-.066c.059-.042.1-.117.142-.184.15-.217.385-.359.552-.568.351-.434.301-1.052.226-1.611-.025-.209-.059-.434-.2-.585-.176-.192-.46-.225-.72-.233-.376-.017-.803 0-1.062.275m15.677 10.57c-.276-.017-.536.15-.694.368-.16.217-.243.492-.318.751-.142.484-.276.977-.25 1.478.024.501.242 1.018.676 1.286.285.175.627.217.954.225a4.105 4.105 0 0 0 2.541-.843 3.866 3.866 0 0 0 1.413-2.263c.05-.234.067-.484-.05-.693-.092-.159-.25-.267-.41-.359-1.237-.685-2.884-.534-3.971.376M34.689 130.79c-.586.86-1.163 1.728-1.539 2.696-.376.969-.56 2.038-.317 3.048.117.476.334.952.718 1.252.218.167.469.267.72.359a6.296 6.296 0 0 0 5.258-.609 8.153 8.153 0 0 0 1.422-1.153c.736-.726 1.38-1.561 1.814-2.496.435-.935.644-1.987.518-3.014-.05-.384-.15-.768-.36-1.094-.158-.25-.384-.451-.61-.634a4.32 4.32 0 0 0-.886-.576c-.836-.401-1.806-.451-2.717-.318-.911.134-1.79.46-2.659.785-.535.192-1.07.393-1.546.693-.477.301-.903.718-1.12 1.236m-4.892 15.738c-.226-.017-.434.159-.526.367-.092.209-.1.443-.11.668v1.353c.018.568.076 1.202.494 1.595.276.258.669.367 1.045.442.928.175 1.898.184 2.801-.1.903-.284 1.722-.86 2.182-1.687.402-.718.51-1.578.385-2.388-.126-.809-.46-1.577-.903-2.279-.109-.175-.234-.359-.41-.467-.167-.101-.368-.134-.568-.167-.979-.151-2.09-.259-2.851.375a2.987 2.987 0 0 0-.477.543 11.106 11.106 0 0 0-1.012 1.687m-9.263 23.528c-.485.05-.87.475-.995.943-.125.468-.05.968.084 1.436.066.225.15.459.334.601a.838.838 0 0 0 .51.159c.535.017 1.028-.259 1.488-.526.368-.209.744-.443.945-.818.184-.334.184-.743.159-1.119-.025-.493-.126-1.061-.544-1.328-.35-.225-.802-.158-1.204-.092-.275.051-.576.109-.752.326a1.207 1.207 0 0 0-.184.409m8.169-9.518c-.335.234-.51.635-.636 1.027a9.43 9.43 0 0 0-.401 4.066c.016.159.041.326.125.468.109.192.301.325.493.417.778.359 1.69.184 2.517-.025.77-.192 1.538-.426 2.19-.868.51-.351.92-.818 1.313-1.294.786-.969 1.497-2.013 1.998-3.165.251-.584.452-1.21.435-1.845-.033-.985-.577-1.878-1.187-2.655-.493-.618-1.112-1.236-1.898-1.327-.619-.067-1.237.208-1.706.609-.468.401-.819.935-1.154 1.453a104.21 104.21 0 0 0-2.767 4.533m-8.502.451c-.268.635-.318 1.47.2 1.921.376.334.928.35 1.43.359.677 0 1.388 0 1.973-.326.284-.167.526-.401.752-.643.293-.326.577-.676.72-1.085.116-.334.141-.693.141-1.044 0-.259-.016-.518-.108-.76-.251-.676-1.062-1.027-1.781-.935-.72.092-1.346.543-1.848 1.061-.502.517-.928 1.11-1.438 1.619M92.01 40.777c-1.38.292-2.333 1.695-2.425 3.098-.092 1.403.527 2.772 1.38 3.89.125.16.259.326.45.401.235.092.503.017.745-.05.644-.184 1.296-.376 1.856-.743s1.028-.935 1.104-1.603c.05-.417-.059-.835-.168-1.244-.133-.51-.275-1.019-.41-1.536-.116-.443-.242-.894-.51-1.26-.267-.368-.718-.644-1.17-.569m13.946 8.642c-.669 1.46-.878 3.047-.602 4.575.109.584.293 1.186.803 1.628.501.443 1.237.668 1.948.877.669.2 1.388.4 2.09.284 1.078-.184 1.739-1.102 1.705-1.954-.033-.852-.61-1.628-1.254-2.33-1.145-1.244-2.591-2.37-4.364-3.055m-2.048 17.6c-.753.267-1.221 1.085-1.246 1.887-.025.801.318 1.57.777 2.229.452.651 1.229 1.26 1.965.968.828-.325.861-1.469.744-2.346-.083-.634-.184-1.285-.485-1.853-.301-.568-.836-1.052-1.471-1.119m15.986-2.104c-1.413 1.244-2.241 2.822-2.333 4.425-.033.576.042 1.177.451 1.67.41.492 1.221.86 2.015.743.795-.117 1.346-.668 1.497-1.236.15-.567-.025-1.152-.192-1.711-.36-1.177-.711-2.355-1.071-3.54m-5.927 15.997c-.853 2.22-.167 5.66 1.296 6.545.401.242.903.284 1.212-.217.159-.25.242-.593.326-.926.318-1.336.602-2.906.192-4.167-.443-1.386-1.488-1.761-2.408-1.987m11.856 13.025c-.284.852-.56 1.737-.485 2.63.075.893.569 1.812 1.421 2.112a1.8 1.8 0 0 0 1.129.017c.87-.275 1.405-1.244 1.346-2.154-.058-.91-.644-1.728-1.396-2.246-.753-.518-1.656-.768-2.558-.91m12.549 10.553c-1.371 1.061-1.823 3.148-1.012 4.676.268.509.753.993 1.33.96.434-.025.794-.334 1.07-.66.694-.81 1.128-1.912.894-2.955-.234-1.044-1.245-1.929-2.307-1.779m-11.262 9.368c.627-.142 1.262.301 1.555.868.293.568.326 1.228.36 1.862.025.576.05 1.169-.184 1.695-.234.526-.786.96-1.346.852-.619-.117-.962-.802-1.054-1.428-.192-1.286.318-2.655 1.296-3.515m12.775 9.485a3.337 3.337 0 0 0-.109 2.655c.118.292.293.584.586.701.175.067.368.067.552.033 1.02-.2 1.63-1.444 1.27-2.412-.359-.969-1.538-1.512-2.541-1.269m-5.217-2.455a3.49 3.49 0 0 0-1.062 1.995c-.017.126-.034.251.017.368.075.192.301.292.51.309.618.05 1.178-.46 1.387-1.044.209-.585.168-1.227.109-1.854m10.392 13.334a8.52 8.52 0 0 0-.493 3.39c.042.726.31 1.594 1.02 1.745.602.133 1.179-.368 1.463-.91.761-1.445.117-3.465-1.346-4.2m9.105 4.275c.41.584-.15 1.561.385 2.029.167.142.393.192.618.175.744-.05 1.355-.801 1.246-1.536-.109-.735-.911-1.286-1.639-1.119m-1.889-21.282c-.443.593-.861 1.269-.836 2.012.025.743.694 1.495 1.413 1.328.685-.159.978-.961 1.095-1.662.075-.442.117-.935-.134-1.311-.251-.375-.919-.451-1.112-.041m-1.003 7.614.351.676c.217.426.435.86.493 1.336.059.476-.1 1.002-.501 1.269-.485.326-1.196.134-1.539-.334-.342-.467-.342-1.127-.108-1.653.434-.968 1.68-1.486 2.675-1.102m-7.349-20.814c-.351.768-.711 1.603-.585 2.438.125.834.953 1.628 1.764 1.377.861-.267 1.07-1.402.928-2.296-.125-.768-.485-1.603-1.229-1.828m8.336-8.959-1.087 2.997c-.209.576-.418 1.186-.285 1.779.134.593.778 1.11 1.346.893.201-.075.36-.234.502-.4 1.02-1.203 1.154-3.065.326-4.4m-13.017-6.438c-.126.793-.243 1.637.066 2.38.31.743 1.238 1.285 1.94.901.527-.283.727-.935.753-1.536.025-.626-.109-1.294-.536-1.753-.426-.46-1.195-.635-1.697-.259M139.9 74.575c-.644 1.16-.059 2.822 1.162 3.331.301.125.635.184.945.1.794-.217 1.053-1.194 1.078-2.012a9.38 9.38 0 0 0-.058-1.453c-.084-.718-.368-1.57-1.079-1.72-.477-.1-.978.192-1.254.593-.276.4-.401.894-.51 1.37m8.879-12.124c-1.547.518-1.915 1.545-1.806 2.447.059.5.243 1.027.828 1.444.585.418 1.672.71 2.7.593 1.597-.184 2.099-1.136 2.283-1.92.167-.718.301-1.478-.234-2.155-.535-.676-1.948-1.252-3.453-1.152m7.257 11.505c-.636.334-1.229.777-1.622 1.378-.393.601-.569 1.37-.343 2.046.385 1.152 1.697 1.67 2.851 2.045.527.167 1.079.343 1.622.226a1.638 1.638 0 0 0 1.221-1.211c.192-.902-.41-1.77-1.071-2.413-.66-.643-1.429-1.244-1.73-2.12m-22.181-16.941c.978.3 1.68 1.144 2.023 2.045.343.902.385 1.887.418 2.848.017.417.025.851-.175 1.227-.427.768-1.514.893-2.442.91-.426 0-.869 0-1.271-.142-1.212-.443-1.463-1.97-1.212-3.164.36-1.754 1.388-3.382 2.851-4.526m10-8.816a21.994 21.994 0 0 0-.377 4.057c0 .343 0 .685.134 1.002.309.785 1.204 1.136 2.015 1.395.552.183 1.246.334 1.655-.084.343-.35.293-.918.159-1.386-.476-1.728-1.655-3.172-2.801-4.55m-21.512-9.961.025 1.896c0 .334.017.684.21.96.167.233.434.367.702.484a11.91 11.91 0 0 0 3.21.885c.251.033.519.05.744-.058.218-.109.368-.318.469-.535.409-.835.276-1.87-.218-2.655-.493-.785-1.337-1.31-2.232-1.553-.803-.217-1.789-.167-2.291.493m7.107-13.517c-.878.776-1.731 1.678-1.865 2.771-.134 1.094.811 2.33 2.049 2.23 1.321-.1 1.956-1.511 1.931-2.68a5.98 5.98 0 0 0-1.062-3.24M127.467 7.59c-.192.6-.376 1.319 0 1.82.126.166.301.283.485.375.811.384 1.898.059 2.358-.718.393-.66.301-1.578-.243-2.12-.543-.543-1.496-.627-2.098-.15-.293.233-.493.559-.686.876M112.284 4l.151 1.243c.075.643.05 1.478-.552 1.712-.502.192-1.02-.184-1.421-.535-.251-.217-.51-.45-.636-.76-.351-.843.435-1.703 1.146-2.287M93.707 120.278c-.2.217-.318.551-.192.818.091.201.3.326.518.401a2.15 2.15 0 0 0 1.103.108.364.364 0 0 0 .168-.058c.058-.05.083-.134.108-.209.034-.142.076-.284.109-.434.025-.092.05-.184.034-.284-.017-.125-.093-.225-.168-.325l-.35-.426c-.043-.05-.085-.1-.151-.117a.383.383 0 0 0-.218 0l-1.07.175m6.145 5.611a5.736 5.736 0 0 0-.142 2.688c.042.234.109.476.31.61.2.133.468.1.702.067.593-.092 1.204-.201 1.714-.501.51-.301.919-.877.861-1.47-.067-.618-.619-1.094-1.212-1.269-.594-.175-1.229-.117-1.848-.05m2.424 10.011c.954-.242 2.049.325 2.408 1.244.184.476.184 1.002.184 1.511 0 .209 0 .434-.125.609-.109.159-.301.251-.477.326-.46.2-.936.409-1.429.459-.494.05-1.046-.083-1.38-.459-.401-.451-.41-1.135-.293-1.737a5.775 5.775 0 0 1 .937-2.212m9.155 6.42a9.945 9.945 0 0 0-.753 3.874c.009.743.168 1.57.928 2.013.719.425 1.723.35 2.617.25m-.309-16.122c.577.284 1.17.576 1.647 1.01.477.434.844 1.035.844 1.678 0 .484-.192.944-.393 1.386-.117.267-.242.543-.468.727-.426.334-1.087.2-1.471-.176-.385-.375-.552-.927-.627-1.461a5.718 5.718 0 0 1 .635-3.456m-2.257-10.621c-.376.368-.761.744-.995 1.211-.234.468-.301 1.052-.042 1.503.259.451.911.685 1.346.392.176-.117.293-.3.401-.492.276-.485.477-1.044.36-1.578-.117-.535-.669-1.01-1.204-.869m-6.939-12.022c-.41.801-.435 1.82.033 2.596.468.768 1.455 1.228 2.324.977 1.054-.301 1.656-1.486 1.639-2.58 0-.451-.109-.918-.401-1.261-.36-.417-.945-.576-1.497-.542-.552.033-1.07.234-1.58.434-.426.167-.903.384-1.028.826m17.457 36.152c-1.171.084-2.325-.793-2.508-1.912-.268-1.603 1.287-2.972 2.867-3.548m-58.433-34.323a7.196 7.196 0 0 0-2.29.743c-.26.142-.536.317-.628.601-.058.175-.033.367-.016.551l.15 1.236c.05.375.1.768.293 1.093.192.326.568.585.945.518.35-.067.593-.376.802-.66.443-.609.895-1.219 1.17-1.92.277-.701.352-1.511.05-2.196m25.902-45.611c.168-.601.469-1.311 1.087-1.378.41-.042.778.234 1.054.543.777.877 1.07 2.154.769 3.29-.059.208-.134.408-.268.575-.384.476-1.095.502-1.705.476-.828-.033-1.806-.15-2.19-.885-.226-.442-.151-.993.091-1.427.243-.434.636-.768 1.037-1.06m24.865-40.436a16.55 16.55 0 0 0-2.199.535c-.092.033-.193.067-.259.133a.467.467 0 0 0-.101.276c-.167 1.094.318 2.246 1.171 2.955.853.71 2.048.952 3.135.718.343-.075.686-.2.97-.409.777-.567 1.011-1.661.819-2.605-.092-.476-.318-.968-.752-1.185-.251-.125-.544-.142-.82-.167a7.964 7.964 0 0 1-2.591-.702M10.142 179.332c-.761.033-1.38.693-1.606 1.419-.225.726-.15 1.511-.067 2.263.026.217.05.442.184.617.176.234.502.293.795.293 1.095-.009 2.132-.852 2.374-1.921.243-1.068-.343-2.262-1.33-2.738m.486-31.109c-1.163 1.043-.962 2.889-.586 4.4.1.409.218.835.535 1.11.243.217.577.318.895.343 1.764.15 3.227-1.854 2.81-3.574-.419-1.72-2.3-2.83-4.064-2.697M101.44 32.12c-.602.968-1.07 2.062-1.078 3.205-.008 1.144.535 2.33 1.547 2.872.326.176.719.276 1.07.167.334-.108.585-.384.777-.676 1.346-2.029.326-5.201-1.956-6.061"/>
    <path fill="#FFD082" d="M32.95 172.978 49.529 299h71.618l26.854-127.308-115.052 1.286Z"/>
    <path fill="#FF436C" d="M32.95 172.978 148 171.692l-4.13 19.554-108.639-.927-2.282-17.341Zm76.274 121.013a3.343 3.343 0 0 0 3.345-3.34 3.343 3.343 0 0 0-3.345-3.34 3.342 3.342 0 0 0-3.344 3.34 3.342 3.342 0 0 0 3.344 3.34ZM88.74 210.499a4.595 4.595 0 0 0 4.599-4.592 4.595 4.595 0 0 0-4.599-4.592 4.595 4.595 0 0 0-4.598 4.592 4.595 4.595 0 0 0 4.599 4.592Zm-34.278 76.812a6.266 6.266 0 0 0 6.27-6.262 6.267 6.267 0 0 0-6.27-6.262 6.267 6.267 0 0 0-6.27 6.262 6.266 6.266 0 0 0 6.27 6.262Zm26.336 4.175a5.013 5.013 0 0 0 5.016-5.01 5.013 5.013 0 0 0-5.016-5.009 5.013 5.013 0 0 0-5.017 5.009 5.013 5.013 0 0 0 5.017 5.01Zm17.975-24.213a3.76 3.76 0 0 0 3.763-3.757 3.76 3.76 0 0 0-3.763-3.757 3.76 3.76 0 0 0-3.762 3.757 3.76 3.76 0 0 0 3.762 3.757ZM77.035 253.08a3.76 3.76 0 0 0 3.763-3.757 3.76 3.76 0 0 0-3.763-3.758 3.76 3.76 0 0 0-3.762 3.758 3.76 3.76 0 0 0 3.763 3.757Zm-22.573-48.425a3.76 3.76 0 0 0 3.762-3.758 3.76 3.76 0 0 0-3.762-3.757 3.76 3.76 0 0 0-3.763 3.757 3.76 3.76 0 0 0 3.763 3.758Zm8.778 18.368a2.507 2.507 0 0 0 2.509-2.505 2.507 2.507 0 0 0-2.509-2.505 2.507 2.507 0 0 0-2.508 2.505 2.507 2.507 0 0 0 2.508 2.505Zm36.787 8.349a.836.836 0 0 0 .837-.835.836.836 0 0 0-1.673 0c0 .461.375.835.836.835Zm-43.893 8.349a1.253 1.253 0 1 0 .001-2.507 1.253 1.253 0 0 0-.001 2.507Zm49.746 5.844a3.341 3.341 0 0 0 3.344-3.339 3.342 3.342 0 0 0-3.344-3.34 3.342 3.342 0 0 0-3.344 3.34 3.341 3.341 0 0 0 3.344 3.339Zm25.082-35.901a2.506 2.506 0 0 0 2.508-2.505 2.506 2.506 0 0 0-2.508-2.504 2.506 2.506 0 0 0-2.508 2.504 2.506 2.506 0 0 0 2.508 2.505Zm-7.107 16.698a1.253 1.253 0 1 0 0-2.504 1.253 1.253 0 1 0 0 2.504Z" opacity=".75"/>
  </g>
  <defs>
    <clipPath id="a">
      <path fill="#fff" d="M0 0h168v299H0z"/>
    </clipPath>
  </defs>
</svg>
