<svg xmlns="http://www.w3.org/2000/svg" width="315" height="247" fill="none" viewBox="0 0 315 247">
  <path fill="#FF436C" d="M237.6 1.408c-13.371 4.562-17.568 30.042-12.291 63.007-11.545-14.102-23.19-21.258-32.282-18.156-13.372 4.562-17.568 30.042-12.292 63.007-11.544-14.102-23.189-21.258-32.282-18.156-13.371 4.562-17.567 30.042-12.291 63.007-11.544-14.102-23.19-21.258-32.282-18.156-13.371 4.562-17.567 30.042-12.291 63.007-11.545-14.102-23.19-21.258-32.282-18.156-13.372 4.562-17.568 30.042-12.292 63.007-11.544-14.102-23.19-21.258-32.282-18.156-18.461 6.298-19.436 52.444-2.16 103.08 17.276 50.637 46.252 86.563 64.713 80.265 13.372-4.562 17.568-30.042 12.292-63.008 11.544 14.103 23.189 21.259 32.282 18.157 13.371-4.562 17.567-30.042 12.291-63.008 11.544 14.103 23.19 21.259 32.282 18.157 13.371-4.562 17.567-30.042 12.291-63.008 11.545 14.103 23.19 21.259 32.282 18.157 13.372-4.562 17.568-30.042 12.292-63.008 11.544 14.103 23.189 21.259 32.282 18.157 13.371-4.562 17.567-30.042 12.291-63.008 11.544 14.103 23.19 21.259 32.282 18.157 18.461-6.299 19.437-52.444 2.161-103.08C285.038 31.035 256.08-4.898 237.6 1.407Z"/>
</svg>
