<svg xmlns="http://www.w3.org/2000/svg" width="263" height="353" fill="none" viewBox="0 0 263 353">
  <g clip-path="url(#a)">
    <path fill="#90BF96" d="M79.596 177.271c5.802.271 11.986.642 17.328 3.142 2.574 1.204 4.913 2.916 6.566 5.247 2.001 2.837 2.923 6.249 3.576 9.627 3.08 15.921-.034 32.36-2.362 48.157l-4.081 27.777c-.315 2.129 2.934 3.041 3.249.901l3.846-26.111c1.282-8.703 2.653-17.058 3.429-25.649.753-8.389.821-16.856-.674-25.177-1.226-6.846-3.913-13.162-10.131-16.799-6.218-3.637-13.73-4.166-20.734-4.493-2.17-.101-2.17 3.277 0 3.378h-.012Z"/>
    <path fill="#90BF96" d="M105.581 271.131c7.388-28.081 11.762-56.861 19.396-84.886 3.745-13.748 8.287-27.327 14.393-40.219 6.105-12.892 13.526-26.167 24.714-35.322 12.087-9.885 27.39-14.76 42.03-19.456 2.058-.665 1.181-3.919-.899-3.254-13.313 4.267-26.952 8.681-38.59 16.642-12.245 8.365-20.419 20.706-27.188 33.688-13.56 26.055-20.217 54.925-26.243 83.468-3.419 16.191-6.657 32.439-10.873 48.45-.551 2.105 2.698 3.006 3.249.901l.011-.012Z"/>
    <path fill="#90BF96" d="M112.474 239.075c3.879-12.093 4.363-24.883 4.171-37.483-.202-12.937-.843-25.818.372-38.733 2.383-25.39 7.893-50.646 15.505-74.967a386.306 386.306 0 0 1 15.191-40.399c.865-1.97-2.035-3.693-2.913-1.7-10.355 23.454-18.44 47.898-24.017 72.928a382.7 382.7 0 0 0-6.476 37.889c-.787 6.553-1.327 13.129-1.44 19.727-.112 6.406.102 12.802.27 19.197.371 14.311.495 28.859-3.913 42.641-.663 2.071 2.587 2.961 3.25.9Zm7.387 20.38c1.338-7.758 2.744-15.921 7.331-22.519 2.463-3.536 5.937-6.272 9.479-8.659 3.542-2.387 7.163-4.368 11.008-5.99 4.441-1.869 9.096-3.198 13.83-4.031 2.136-.371 1.226-3.637-.899-3.254-8.748 1.543-17.193 4.842-24.647 9.695-3.756 2.443-7.523 5.235-10.345 8.76-2.631 3.288-4.475 7.059-5.813 11.045-1.529 4.572-2.384 9.323-3.193 14.064-.371 2.128 2.878 3.04 3.249.9v-.011Z"/>
    <path fill="#90BF96" d="M119.501 253.555c-2.754-13.264-5.644-27.518-1.124-40.737 2.125-6.204 5.813-11.958 9.647-17.25a99.659 99.659 0 0 1 12.223-13.905 100.52 100.52 0 0 1 16.517-12.645c1.844-1.137.158-4.053-1.698-2.916-11.053 6.767-20.734 15.572-28.571 25.897-4.081 5.382-7.859 11.214-10.445 17.486-2.733 6.621-3.599 13.827-3.34 20.943.292 8.107 1.9 16.101 3.542 24.017.438 2.128 3.699 1.227 3.249-.901v.011Z"/>
    <path fill="#90BF96" d="M114.307 245.493c5.88-10.663 5.408-23.082 3.654-34.758-1.911-12.724-4.599-25.413-7.365-37.979-2.766-12.566-6.094-25.57-10.401-37.978a215.94 215.94 0 0 0-7.23-18.185c-2.45-5.416-5.115-10.82-10.052-14.39-5.633-4.076-13.144-5.81-19.823-7.24a107.895 107.895 0 0 0-22.735-2.375c-2.17 0-2.17 3.378 0 3.378 6.623 0 13.234.574 19.744 1.835 5.892 1.137 12.11 2.545 17.53 5.202 2.53 1.238 4.8 2.837 6.622 4.999 1.822 2.162 3.205 4.797 4.43 7.375 2.71 5.664 5.083 11.485 7.22 17.385 8.556 23.634 13.391 48.54 17.844 73.21 2.248 12.431 4.002 26.28-2.362 37.821-1.045 1.903 1.867 3.614 2.912 1.7h.012Z"/>
    <path fill="#90BF96" d="M72.614 176.28c-.585.158 3.362-8.579.944-17.565-2.417-8.985-10.277-14.817-9.703-14.975.573-.157 8.298 5.574 10.715 14.559 2.418 8.985-1.383 17.824-1.956 17.981Zm10.457 34.635c-.585.158 3.362-8.58.944-17.565-2.417-8.985-10.277-14.818-9.703-14.975.573-.158 8.298 5.573 10.715 14.558 2.418 8.986-1.383 17.824-1.956 17.982Zm-17.777 4.256c-.607.034 5.094-7.668 4.633-16.968-.461-9.301-6.916-16.664-6.308-16.698.607-.034 6.937 7.206 7.398 16.506.461 9.29-5.116 17.126-5.723 17.16Zm15.067-39.555c.157.586-16.158 5.495-36.442 10.967s-36.846 9.436-37.004 8.85c-.157-.585 16.158-5.495 36.442-10.967s36.847-9.435 37.004-8.85Zm1.136 24.129c1.563 5.822.18 12.195-2.024 17.779 12.098-2.837 21.127-8.32 22.072-15.842.888-7.06-9.996-15.572-18.238-21.157a8.827 8.827 0 0 1-3.002-11.158c4.329-8.974 9.22-20.616 4.902-26.269-4.632-6.069-15.235-6.609-27.177-3.209 5.161 10.089 6.612 22.779 7.208 33.475.191 3.524-5.274 3.479-5.476-.034-.562-10.099-1.822-22.361-7.005-31.718-3.62 1.329-7.297 2.995-10.907 4.932a81.561 81.561 0 0 1 1.17 3.423c2.833 8.681 4.002 17.79 5.318 26.786.506 3.457-4.779 4.91-5.285 1.43-1.113-7.611-2.113-15.279-4.115-22.733-.495-1.824-1.012-4.042-1.72-6.238a91.448 91.448 0 0 0-6.23 4.2c2.283 4.707 3.745 9.864 6.218 14.458 1.665 3.107-3.047 5.888-4.71 2.781-2.036-3.806-3.307-8.062-5.072-11.992-.27-.597-.54-1.193-.81-1.779-4.26 3.603-7.96 7.454-11.007 11.372.034.034.067.057.09.09 2.316 2.106 4.643 4.178 7.5 5.506 2.45 1.138 5.273 1.374 7.6 2.748 3.036 1.801.304 6.553-2.732 4.751-2.451-1.452-5.7-1.756-8.298-3.096-2.665-1.374-4.959-3.355-7.185-5.337-.056-.056-.112-.113-.18-.158-1.967 3.052-3.53 6.092-4.655 9.042a63.18 63.18 0 0 1 3.317.923c3.362 1.025 1.945 6.317-1.44 5.292-1.292-.394-2.641-.788-4.002-1.092-.169.619-.304 1.25-.382 1.891-.259 2.095-2.676 4.887-2.002 6.948.079.247.146.495.203.754.46 2.106 3.946 3.322 5.217 4.988 1.214 1.588 2.744 2.849 4.52 3.828 1.282 1.137 2.71 2.218 4.261 3.254 3.273-3.366 5.083-7.926 7.545-11.867 1.878-2.984 6.623-.259 4.745 2.736-2.473 3.952-4.43 8.444-7.5 11.98 4.52 2.376 9.772 4.357 15.506 5.776.023-.191.056-.383.079-.563 1.012-7.69.798-16.934 5.33-23.6 1.978-2.894 6.735-.18 4.744 2.736-2.271 3.333-2.946 7.522-3.485 11.451-.506 3.693-.821 7.409-1.338 11.102 1.36.248 2.743.462 4.149.642 2.383.304 4.8.507 7.218.619.315-.461.596-.946.855-1.475 3.407-6.789 3.058-15.167 3.036-22.564 0-3.524 5.464-3.502 5.476.034.022 7.96.146 16.709-3.216 24.129 4.239-.056 8.41-.372 12.368-.957.439-.845.844-1.712 1.192-2.59 1.855-4.549 3.373-10.111 2.058-14.986-.911-3.412 4.374-4.831 5.284-1.43l.012-.012Zm-14.19-35.647c-.922-3.412 4.362-4.831 5.284-1.43.922 3.4-4.362 4.83-5.284 1.43Zm5.543 29.038c-.73.034-1.372-.664-1.36-1.374.022-1.463.123-2.927.404-4.368.146-.755 1.001-1.115 1.676-.957.326.078.652.337.82.63.192.327.214.687.147 1.059a9.03 9.03 0 0 0-.135.822 26.715 26.715 0 0 0-.169 2.848c-.011.766-.63 1.329-1.372 1.363l-.011-.023ZM51.779 167.07c-.787.034-1.305-.664-1.36-1.374-.057-.619-.102-1.238-.17-1.857-.01-.124-.033-.259-.044-.383 0-.023 0-.057-.012-.09a1.99 1.99 0 0 0-.045-.271 24.779 24.779 0 0 0-.18-.957c-.078-.326-.157-.664-.27-.979-.044-.147-.112-.304-.157-.451l-.101-.202a3.14 3.14 0 0 0-.236-.428c-.034-.056-.068-.101-.101-.158-.045-.056-.192-.191-.057-.09.158.113-.033-.034-.067-.067-.045-.045-.079-.09-.124-.136-.045-.045-.1-.078-.146-.123-.63-.428-.866-1.171-.506-1.869.326-.62 1.27-.912 1.867-.507 2.698 1.835 2.844 5.641 3.092 8.591.067.766-.686 1.34-1.372 1.362l-.011-.011Zm-27.12 4.065c-1.418-.822-2.362-2.173-3.565-3.243-.574-.507-.484-1.407-.011-1.937.236-.259.64-.405.978-.405.36 0 .686.158.956.394.922.811 1.675 1.802 2.63 2.567.124.09.248.169.372.248.663.383.843 1.205.506 1.869-.338.653-1.248.867-1.867.507Zm-2.115 16.608c-.37 0-.686-.158-.955-.394-1.305-1.138-2.733-2.151-3.61-3.694-.382-.664-.146-1.463.484-1.88.607-.394 1.518-.135 1.877.484a5.8 5.8 0 0 0 .36.552c.81.991 1.855 1.745 2.811 2.59.574.506.484 1.418.012 1.936-.237.259-.641.406-.979.406Zm-5.936 12.723c-.08.27-.136.541-.192.822 0 .056-.022.113-.033.18a.94.94 0 0 1-.023.147c0 .078-.011.146-.022.225-.068.765-.585 1.328-1.372 1.362-.697.023-1.428-.664-1.36-1.373.112-1.25.427-2.433.899-3.592.46-1.115 1-2.173 1.529-3.254.337-.687 1.248-.834 1.867-.507.685.36.82 1.227.506 1.869-.439.901-.878 1.802-1.305 2.714a7.809 7.809 0 0 0-.123.292l-.135.372a7.95 7.95 0 0 0-.236.754v-.011Zm17.731-2.004c.326.079.652.338.821.63.191.327.214.687.146 1.059-.056.27-.1.54-.135.822a26.704 26.704 0 0 0-.168 2.848c-.012.766-.63 1.329-1.372 1.363-.731.034-1.372-.664-1.36-1.374.022-1.464.123-2.927.404-4.369.146-.754 1-1.114 1.675-.957l-.01-.022Zm18.632 6.947c.652.338.854 1.25.506 1.869a7.8 7.8 0 0 0-.338.687c-.37.968-.562 1.993-.708 3.018-.045.349-.349.641-.63.822-.315.202-.708.225-1.057.146a1.395 1.395 0 0 1-.82-.631c-.203-.349-.192-.675-.147-1.058.214-1.52.551-3.006 1.316-4.358.382-.664 1.214-.844 1.866-.506l.012.011Zm-1.507-11.169c-.461-1.701 2.181-2.421 2.642-.71.461 1.712-2.181 2.421-2.642.71Zm3.17-13.107c-.584.158 3.363-8.579.945-17.565-2.417-8.985-10.277-14.817-9.703-14.975.573-.158 8.298 5.574 10.715 14.559 2.418 8.985-1.383 17.824-1.956 17.981ZM219.236 67.659c1.99-5.686 6.735-10.167 11.694-13.523-11.593-4.504-22.129-5.078-27.155.597-4.722 5.326-.539 18.51 3.126 27.777a8.814 8.814 0 0 1-3.812 10.9c-8.635 4.965-19.238 11.8-18.867 18.905.405 7.634 8.849 14.074 20.622 18.015 1.428-11.248 7.387-22.542 12.93-31.696 1.822-3.017 6.319.113 4.498 3.119-5.229 8.659-11.109 19.479-12.099 30.142a85.635 85.635 0 0 0 11.784 2.094c.292-1.159.618-2.319.967-3.479 2.564-8.771 6.724-16.946 10.715-25.12 1.53-3.13 6.713-1.351 5.161 1.813-3.373 6.913-6.87 13.815-9.411 21.089-.618 1.779-1.439 3.907-2.091 6.125 2.496.124 5.003.135 7.511.057.776-5.18 2.462-10.258 3.024-15.449.383-3.513 5.836-3.13 5.465.372-.461 4.29-1.81 8.523-2.575 12.768-.112.642-.225 1.284-.337 1.937 5.543-.563 10.772-1.655 15.505-3.164 0-.045-.022-.079-.033-.124-.72-3.051-1.473-6.069-3.092-8.782-1.383-2.331-3.576-4.121-4.723-6.565-1.484-3.197 3.441-5.584 4.936-2.375 1.203 2.578 3.711 4.672 5.105 7.239 1.428 2.646 2.204 5.574 2.912 8.468.023.079.034.157.056.236 3.34-1.407 6.353-3.029 8.939-4.83a68.06 68.06 0 0 1-2.226-2.635c-2.204-2.747 1.957-6.305 4.172-3.547.843 1.059 1.731 2.14 2.687 3.164.495-.416.956-.856 1.383-1.34 1.394-1.576 4.959-2.522 5.566-4.594a9.64 9.64 0 0 1 .258-.743c.81-1.993-1.383-4.965-1.495-7.071-.101-1.993-.652-3.907-1.574-5.708a42.888 42.888 0 0 0-1.676-5.101c-4.598.934-8.669 3.671-12.919 5.528-3.227 1.408-5.611-3.524-2.373-4.942 4.273-1.858 8.411-4.46 12.942-5.653-2.395-4.515-5.599-9.12-9.535-13.534-.123.147-.258.282-.382.417-5.172 5.776-10.209 13.534-17.709 16.461-3.261 1.273-5.656-3.66-2.373-4.943 3.756-1.463 6.668-4.549 9.333-7.476 2.507-2.759 4.857-5.652 7.365-8.411a83.235 83.235 0 0 0-3.059-2.871 92.209 92.209 0 0 0-5.61-4.594c-.518.203-1.035.45-1.541.732-6.645 3.682-11.075 10.786-15.236 16.912-1.978 2.916-6.476-.203-4.497-3.12 4.475-6.586 9.31-13.871 16.259-18.093-3.531-2.354-7.151-4.448-10.75-6.204a28.21 28.21 0 0 0-2.451 1.463c-4.093 2.714-8.478 6.44-10.153 11.204-1.169 3.332-6.331 1.52-5.161-1.813v-.034Zm-8.399 37.438c-1.17 3.333-6.331 1.52-5.161-1.813 1.169-3.332 6.33-1.52 5.161 1.813Zm14.493 6.317c.664.416.697 1.283.349 1.903-.304.54-.619 1.081-.911 1.621-.056.113-.124.225-.18.349 0 .023-.022.045-.045.09a1.599 1.599 0 0 0-.112.248c-.135.293-.27.597-.394.901-.124.315-.236.63-.337.957-.045.157-.079.304-.124.461 0 .079-.022.147-.034.226-.022.157-.033.326-.045.484v.191c0 .079.057.27 0 .102-.056-.181 0 .045.023.101 0 .056.022.124.034.18.011.056.033.124.045.18.281.71.056 1.453-.641 1.824-.619.327-1.563.034-1.822-.642-1.192-3.051.832-6.26 2.294-8.827.382-.664 1.327-.709 1.9-.349Zm24.67 11.98c.697 1.475.719 3.13 1.113 4.695.191.743-.394 1.442-1.08 1.61-.337.079-.764-.022-1.045-.213-.304-.203-.473-.518-.563-.867-.303-1.194-.371-2.433-.719-3.604-.056-.146-.101-.281-.169-.416-.326-.687-.022-1.475.641-1.824.652-.349 1.518 0 1.822.642v-.023Zm11.109-12.509c.303.214.472.518.562.867.438 1.677 1.046 3.321.899 5.089-.067.766-.708 1.295-1.461 1.272-.731-.022-1.338-.743-1.271-1.463.023-.214.023-.44.011-.653-.112-1.284-.539-2.489-.866-3.727-.191-.744.394-1.442 1.08-1.611.337-.078.765.023 1.046.214v.012Zm12.064-7.139c.214-.18.428-.372.619-.574.045-.045.079-.09.124-.124l.101-.101c.045-.057.101-.113.146-.169.483-.597 1.237-.766 1.9-.349.585.371.798 1.351.349 1.903a12.274 12.274 0 0 1-2.766 2.454c-1.001.653-2.058 1.227-3.104 1.813-.663.372-1.495-.023-1.821-.642-.36-.687.011-1.475.641-1.824a116.77 116.77 0 0 0 2.608-1.509c.045-.033.214-.135.27-.169.113-.078.214-.146.315-.225.214-.157.416-.315.618-.484Zm-15.764-8.377c-.225-.248-.348-.653-.326-.98.023-.382.214-.686.484-.945.202-.192.382-.395.573-.597.63-.71 1.203-1.475 1.743-2.252.439-.63 1.271-.743 1.9-.35.619.395.754 1.318.349 1.904-.843 1.193-1.754 2.353-2.8 3.377-.551.53-1.45.36-1.934-.157h.011ZM245.952 79.11c-.349-.653 0-1.52.641-1.824.224-.113.449-.237.663-.372.855-.585 1.585-1.328 2.294-2.094.236-.259.652-.326.978-.326.371 0 .708.213.944.484.225.248.349.653.327.98-.023.405-.225.664-.484.945-1.034 1.126-2.148 2.173-3.542 2.849-.686.338-1.473.011-1.821-.642Zm-5.049 10.066c-.585 1.666-3.159.754-2.586-.9.573-1.656 3.16-.755 2.586.9Zm-18.271-11.18c.618.393.753 1.317.348 1.902-.843 1.194-1.754 2.353-2.8 3.378-.551.53-1.45.36-1.934-.158-.224-.247-.348-.653-.326-.98.023-.382.214-.686.484-.945.202-.191.382-.394.573-.597a24.05 24.05 0 0 0 1.743-2.252c.439-.63 1.271-.743 1.9-.349h.012Zm-9.299 14.051c.573.203-7.612 5.18-10.682 13.962-3.07 8.783.135 18.049-.439 17.847-.573-.203-3.71-9.289-.64-18.072 3.069-8.783 11.187-13.928 11.761-13.737Zm17.563 6.16c.573.202-7.612 5.179-10.682 13.961-3.07 8.783.135 18.049-.438 17.847-.574-.203-3.711-9.289-.641-18.072 3.069-8.782 11.187-13.928 11.761-13.737Zm-6.657-40.66c.574.204-7.612 5.18-10.681 13.963-3.07 8.782.135 18.049-.439 17.846-.573-.202-3.71-9.289-.641-18.071 3.07-8.783 11.188-13.928 11.761-13.737Zm17.069 6.543c.517.315-8.534 3.445-13.392 11.383-4.857 7.927-3.688 17.666-4.205 17.34-.517-.327-1.653-9.875 3.205-17.802 4.857-7.926 13.886-11.237 14.392-10.921Zm-34.744 24.13c.202-.575 16.427 4.593 36.262 11.551 19.823 6.948 35.733 13.05 35.531 13.613-.202.563-16.428-4.594-36.262-11.552-19.823-6.947-35.734-13.05-35.531-13.613Zm-41.502 126.062c.248.033-2.575 2.769-3.013 6.564-.439 3.794 1.686 7.217 1.439 7.195-.247-.023-2.327-3.389-1.9-7.184.427-3.794 3.216-6.598 3.463-6.575h.011Zm7.601.867c.248.033-2.575 2.769-3.013 6.564-.439 3.794 1.686 7.217 1.439 7.195-.247-.023-2.327-3.389-1.9-7.184.427-3.794 3.216-6.598 3.463-6.575h.011Zm-6.353-15.685c.248.034-2.575 2.77-3.013 6.564-.439 3.795 1.687 7.218 1.439 7.195-.247-.022-2.327-3.389-1.9-7.183.427-3.795 3.216-6.599 3.463-6.576h.011Zm7.433 1.07c.236.078-3.104 2.161-4.329 5.776-1.226 3.625.123 7.409-.113 7.33-.236-.079-1.563-3.806-.337-7.42 1.226-3.615 4.542-5.765 4.779-5.686Zm-11.739 12.836c.034-.248 7.005.349 15.573 1.328 8.568.98 15.505 1.982 15.472 2.218-.034.237-7.005-.349-15.573-1.328-8.568-.98-15.506-1.982-15.472-2.218Zm3.216-9.391c.281-2.466 1.776-4.684 3.463-6.485-5.049-.744-9.333-.023-10.828 2.713-1.406 2.567 1.462 7.465 3.767 10.843a3.636 3.636 0 0 1-.54 4.718c-3.014 2.77-6.634 6.474-5.847 9.289.855 3.018 4.824 4.83 9.895 5.348-.45-4.639.91-9.705 2.305-13.883.461-1.373 2.541-.529 2.091.845-1.315 3.941-2.687 8.816-2.114 13.173a34.742 34.742 0 0 0 4.914-.236c.011-.495.034-.991.067-1.486.225-3.75 1.158-7.398 2.013-11.046.326-1.396 2.564-1.148 2.238.259-.72 3.074-1.496 6.159-1.856 9.312-.09.777-.225 1.7-.281 2.646a34.823 34.823 0 0 0 3.014-.665c-.158-2.15.056-4.335-.192-6.463-.168-1.441 2.058-1.79 2.227-.349.202 1.757.045 3.581.123 5.349.012.27.023.54.045.799 2.171-.732 4.172-1.644 5.926-2.68a.09.09 0 0 0-.022-.045c-.563-1.159-1.147-2.297-2.036-3.242-.764-.811-1.81-1.329-2.485-2.207-.888-1.149.877-2.545 1.766-1.397.719.924 1.911 1.532 2.698 2.444.81.934 1.383 2.027 1.934 3.13.012.034.034.056.045.09 1.215-.867 2.272-1.79 3.149-2.747a22.705 22.705 0 0 1-1.125-.856c-1.135-.901.214-2.702 1.349-1.802.439.349.889.699 1.361 1.025.157-.214.304-.428.427-.664.416-.755 1.754-1.464 1.811-2.354 0-.112.022-.213.033-.315.146-.878-1-1.869-1.237-2.702a5.94 5.94 0 0 0-1.146-2.151 15.397 15.397 0 0 0-1.136-1.891c-1.754.788-3.137 2.263-4.678 3.389-1.169.856-2.563-.901-1.394-1.768 1.541-1.137 2.969-2.556 4.678-3.445-1.372-1.599-3.07-3.142-5.049-4.56-.034.067-.079.135-.112.202-1.552 2.781-2.868 6.351-5.6 8.208-1.192.811-2.597-.945-1.394-1.767 1.372-.935 2.26-2.432 3.058-3.851.754-1.329 1.439-2.702 2.193-4.042a32.906 32.906 0 0 0-1.484-.879 36.938 36.938 0 0 0-2.665-1.328c-.191.124-.371.27-.551.428-2.328 2.083-3.463 5.337-4.565 8.163-.529 1.351-2.62.507-2.092-.845 1.192-3.04 2.474-6.406 4.88-8.726a40.236 40.236 0 0 0-4.868-1.509c-.293.259-.585.53-.844.811-1.394 1.453-2.811 3.355-3.047 5.416-.168 1.441-2.395 1.182-2.237-.259l-.045.045Zm.033 15.764c-.168 1.441-2.395 1.182-2.237-.259.157-1.442 2.395-1.183 2.237.259Zm6.376 1.216c.303.101.393.45.315.731-.079.248-.147.485-.214.732a.83.83 0 0 1-.045.158v.034c0 .034-.023.067-.023.112a4.985 4.985 0 0 0-.078.394c-.023.136-.034.282-.045.417v.281c0 .068.011.136.022.203 0 .023 0 .056.012.079 0 .034.044.101 0 .045-.045-.068 0 .023.011.034 0 .022.022.045.034.067 0 .023.022.045.033.068.18.259.158.574-.09.788-.213.192-.618.158-.787-.09-.753-1.115-.236-2.59.113-3.749.09-.304.461-.406.731-.316l.011.012Zm5.329-14.829c-.202-.226-.135-.608.09-.789.079-.067.158-.135.236-.213.293-.316.518-.676.731-1.048.068-.123.225-.191.36-.214.146-.033.304.023.427.102a.525.525 0 0 1 .214.36.636.636 0 0 1-.101.428c-.315.552-.664 1.07-1.158 1.464a.577.577 0 0 1-.787-.09h-.012Zm-1.113 4.492c-.078.721-1.203.597-1.113-.124.09-.72 1.203-.596 1.113.124Zm-8.332-2.815c.282.102.428.462.315.732-.225.552-.483 1.104-.821 1.61-.168.259-.551.271-.787.113a.527.527 0 0 1-.213-.36.636.636 0 0 1 .101-.428c.056-.09.124-.192.18-.293.191-.338.348-.698.495-1.058a.572.572 0 0 1 .73-.316Zm15.09 15.707c.416.53.573 1.194.877 1.779.146.282-.023.609-.292.744-.124.067-.304.056-.439 0a.645.645 0 0 1-.304-.293c-.224-.45-.371-.946-.618-1.385-.034-.056-.067-.101-.101-.158a.569.569 0 0 1 .09-.788c.225-.203.607-.146.787.09v.011Zm3.317-6.023a.632.632 0 0 1 .303.292c.327.631.72 1.239.821 1.96a.567.567 0 0 1-.472.641c-.292.057-.607-.18-.641-.473a1.791 1.791 0 0 0-.056-.259c-.158-.506-.45-.945-.686-1.418-.146-.282.034-.62.292-.743.124-.068.304-.057.439 0Zm4.183-3.964c.067-.09.135-.191.202-.281l.034-.068s.022-.034.034-.056c.011-.023.033-.056.045-.079.146-.281.427-.417.73-.315.27.09.45.473.315.732a5.079 5.079 0 0 1-.888 1.238c-.337.361-.708.676-1.08 1.014-.236.214-.595.123-.787-.09-.202-.237-.123-.597.09-.789.304-.281.608-.551.911-.844l.09-.09c.034-.045.068-.079.113-.124.067-.079.134-.169.202-.248h-.011Zm-7.073-1.925a.527.527 0 0 1-.213-.36.636.636 0 0 1 .101-.428c.056-.09.123-.192.18-.293.191-.338.348-.698.494-1.059a.574.574 0 0 1 .731-.315c.281.102.428.462.315.732-.225.552-.483 1.104-.821 1.61-.168.259-.551.27-.787.113Z"/>
    <path fill="#90BF96" d="M153.818 45.185c.562-.214-2.417 8.884.945 17.565 3.362 8.67 11.806 13.624 11.244 13.85-.562.224-8.849-4.651-12.223-13.321-3.361-8.67-.539-17.869.023-18.083l.011-.011Zm17.339-6.756c.562-.214-2.418 8.884.944 17.565 3.362 8.681 11.806 13.624 11.244 13.85-.562.225-8.849-4.65-12.222-13.32-3.362-8.67-.54-17.87.022-18.084l.012-.01Zm-28.695-15.617c-2.182-5.619-1.484-12.104.112-17.892-11.727 4.121-20.115 10.54-20.25 18.128-.135 7.117 11.604 14.413 20.396 19.074a8.816 8.816 0 0 1 4.183 10.764c-3.339 9.39-6.96 21.484-2.069 26.652 5.262 5.54 15.866 4.932 27.368.27-6.207-9.48-9.006-21.934-10.749-32.506-.574-3.48 4.88-4.031 5.442-.552 1.642 9.987 4.205 22.035 10.367 30.784 3.452-1.712 6.926-3.761 10.322-6.08a98.61 98.61 0 0 1-1.529-3.277c-3.744-8.332-5.881-17.25-8.163-26.066-.877-3.378 4.216-5.393 5.104-1.982 1.923 7.454 3.745 14.964 6.533 22.16.686 1.756 1.439 3.906 2.384 6.023a90.475 90.475 0 0 0 5.734-4.842c-2.766-4.436-4.778-9.401-7.724-13.714-1.99-2.916 2.406-6.181 4.396-3.276 2.429 3.558 4.149 7.656 6.319 11.383.326.563.664 1.126 1.001 1.69 3.845-4.032 7.117-8.265 9.726-12.5-.034-.022-.067-.055-.101-.078-2.53-1.846-5.06-3.648-8.051-4.661-2.563-.867-5.386-.8-7.848-1.926-3.205-1.463-1.001-6.474 2.204-5.01 2.586 1.182 5.847 1.137 8.579 2.184 2.8 1.081 5.285 2.804 7.713 4.538.068.045.124.09.191.146 1.631-3.243 2.856-6.44 3.666-9.492a60.962 60.962 0 0 1-3.396-.563c-3.452-.653-2.608-6.069.866-5.416 1.327.248 2.71.496 4.093.653.101-.63.169-1.272.18-1.925.034-2.105 2.136-5.146 1.248-7.116a8.03 8.03 0 0 1-.281-.732c-.675-2.05-4.273-2.871-5.723-4.402-1.372-1.442-3.025-2.545-4.903-3.322-1.394-.99-2.935-1.914-4.587-2.781-2.89 3.704-4.206 8.433-6.23 12.61-1.54 3.165-6.555.969-5.003-2.206 2.035-4.189 3.497-8.873 6.173-12.724-4.756-1.88-10.176-3.276-16.034-4.076 0 .192 0 .383-.011.563-.192 7.758 1.023 16.924-2.778 24.04-1.653 3.096-6.667.912-5.003-2.207 1.9-3.558 2.125-7.803 2.237-11.755.113-3.727.023-7.454.146-11.181a85.115 85.115 0 0 0-4.194-.191 91.418 91.418 0 0 0-7.241.157 14.101 14.101 0 0 0-.697 1.554c-2.665 7.116-1.417 15.414-.607 22.767.394 3.502-5.06 4.065-5.442.552-.877-7.916-1.934-16.597.618-24.332-4.205.506-8.32 1.272-12.199 2.285-.349.89-.653 1.79-.911 2.703-1.349 4.717-2.271 10.415-.439 15.121 1.271 3.288-3.823 5.27-5.105 1.982h-.033Zm17.923 33.925c1.282 3.288-3.823 5.27-5.105 1.982-1.282-3.288 3.823-5.27 5.105-1.982Zm15.112-4.628c.776-.112 1.36.518 1.495 1.228.113.608.225 1.216.36 1.824.022.124.056.259.09.383 0 .022.011.056.022.09.023.09.045.18.068.259.09.315.18.63.281.934a8.645 8.645 0 0 0 .585 1.374c.045.068.078.135.123.191a4.905 4.905 0 0 0 .405.541c.045.056.214.169.068.079-.169-.102.045.033.078.067a.73.73 0 0 0 .146.113c.045.033.102.067.158.112.675.36.989 1.07.697 1.802-.259.653-1.169 1.036-1.799.698-2.879-1.543-3.429-5.303-3.992-8.208-.146-.755.54-1.396 1.226-1.498l-.011.011Zm26.524-6.958c1.496.664 2.575 1.914 3.891 2.837.629.44.641 1.352.225 1.926-.203.281-.596.473-.934.506a1.43 1.43 0 0 1-.989-.292c-1.001-.71-1.855-1.61-2.89-2.275-.135-.067-.258-.146-.405-.214-.697-.315-.967-1.114-.697-1.801.27-.687 1.147-.991 1.799-.698v.011Zm.326-16.732c.36-.034.698.09.99.293 1.417.99 2.946 1.847 3.98 3.288.45.62.304 1.441-.281 1.914-.562.462-1.495.304-1.911-.282a4.532 4.532 0 0 0-.416-.506c-.911-.901-2.036-1.543-3.081-2.275-.63-.439-.63-1.35-.225-1.925.202-.282.596-.473.933-.507h.011Zm4.532-13.286c.045-.282.078-.552.101-.833 0-.057 0-.124.011-.18v-.372c-.011-.766.439-1.385 1.226-1.497.686-.102 1.484.506 1.495 1.227a12.236 12.236 0 0 1-.506 3.67c-.337 1.149-.764 2.275-1.18 3.4-.259.721-1.147.958-1.799.699-.72-.282-.945-1.137-.698-1.802a94.12 94.12 0 0 0 1.001-2.837c.011-.056.079-.248.09-.304.034-.124.068-.26.09-.383.056-.259.113-.518.157-.777l.012-.011Zm-17.417 3.896c-.338-.034-.686-.27-.877-.54-.225-.305-.293-.665-.259-1.037.023-.27.034-.551.045-.833a26.892 26.892 0 0 0-.135-2.848c-.067-.766.484-1.397 1.226-1.498.731-.113 1.439.507 1.495 1.227.135 1.464.191 2.928.056 4.38-.067.766-.877 1.216-1.562 1.137l.011.012Zm-19.261-4.91c-.686-.27-.99-1.148-.697-1.801.101-.236.18-.473.258-.72.27-1.003.349-2.05.383-3.086.011-.349.281-.675.539-.878.293-.236.675-.293 1.035-.259.337.034.686.27.877.54.236.327.27.654.258 1.036-.056 1.532-.225 3.052-.843 4.47-.304.699-1.113.969-1.799.699h-.011Zm2.698 10.934c.641 1.643-1.911 2.634-2.552.99-.641-1.643 1.911-2.634 2.552-.99Zm-21.138 3.4c.73-.113 1.439.507 1.495 1.227.135 1.464.191 2.928.056 4.38-.067.766-.877 1.216-1.563 1.137-.337-.033-.686-.27-.877-.54-.225-.304-.292-.664-.258-1.036.022-.27.033-.552.045-.822a26.89 26.89 0 0 0-.135-2.848c-.068-.766.483-1.397 1.225-1.498h.012Zm-12.054-16.585c.562-.214-2.417 8.883.944 17.565 3.362 8.68 11.807 13.624 11.244 13.849-.562.225-8.849-4.65-12.222-13.32-3.362-8.67-.539-17.87.023-18.083l.011-.011Zm17.215-6.137c.595-.09-4.251 8.175-2.789 17.363 1.451 9.187 8.658 15.83 8.062 15.92-.596.09-7.668-6.417-9.119-15.617-1.45-9.199 3.261-17.576 3.857-17.666h-.011Zm-10.75 40.951c-.213-.563 15.472-7.195 35.048-14.817 19.576-7.623 35.621-13.343 35.846-12.78.225.563-15.472 7.195-35.048 14.818-19.576 7.622-35.621 13.342-35.846 12.78ZM37.465 105.908c-.405 3.153-2.372 5.99-4.565 8.264 6.477 1.059 11.986.203 13.965-3.276 1.855-3.265-1.743-9.627-4.644-14.007a4.659 4.659 0 0 1 .776-6.046c3.924-3.514 8.658-8.198 7.691-11.834-1.034-3.896-6.105-6.306-12.616-7.06.484 5.968-1.36 12.453-3.227 17.79-.618 1.757-3.272.63-2.665-1.126 1.766-5.044 3.621-11.282 2.969-16.9a46.213 46.213 0 0 0-6.32.202c-.022.63-.067 1.272-.112 1.903-.37 4.808-1.63 9.492-2.8 14.153-.45 1.79-3.317 1.43-2.867-.371.99-3.941 2.047-7.893 2.564-11.924.124-.991.315-2.173.416-3.39a51.76 51.76 0 0 0-3.89.789c.157 2.758-.158 5.573.123 8.31.191 1.857-2.676 2.263-2.867.405-.225-2.263 0-4.605-.056-6.88 0-.349-.023-.687-.034-1.036-2.8.901-5.386 2.027-7.668 3.333 0 .023.022.045.033.056.709 1.498 1.428 2.973 2.553 4.2.967 1.047 2.293 1.734 3.16 2.883 1.112 1.486-1.17 3.254-2.295 1.767-.899-1.204-2.428-2.004-3.429-3.186-1.023-1.216-1.743-2.635-2.429-4.053-.022-.034-.033-.08-.056-.113-1.574 1.092-2.957 2.263-4.093 3.48.495.36.979.742 1.44 1.114 1.439 1.182-.327 3.48-1.766 2.286a35.207 35.207 0 0 0-1.731-1.34c-.214.27-.405.551-.574.844-.55.969-2.294 1.847-2.372 2.984 0 .135-.034.27-.056.405-.203 1.126 1.259 2.421 1.54 3.49a7.473 7.473 0 0 0 1.44 2.782c.404.81.876 1.633 1.427 2.454 2.271-.98 4.082-2.848 6.072-4.267 1.518-1.08 3.283 1.216 1.765 2.297-2.001 1.43-3.856 3.232-6.072 4.335 1.732 2.072 3.89 4.098 6.41 5.956.044-.09.1-.169.146-.259 2.046-3.546 3.8-8.107 7.353-10.437 1.552-1.014 3.329 1.272 1.766 2.297-1.777 1.17-2.957 3.074-4.003 4.886-.99 1.701-1.9 3.457-2.89 5.146.618.394 1.248.777 1.9 1.148a53.791 53.791 0 0 0 3.396 1.768c.247-.157.483-.338.72-.54 3.036-2.624 4.553-6.79 6.026-10.404.709-1.723 3.374-.608 2.665 1.126-1.596 3.884-3.294 8.186-6.431 11.124a49.355 49.355 0 0 0 6.229 2.027 15.55 15.55 0 0 0 1.102-1.025c1.821-1.846 3.677-4.256 4.025-6.902.236-1.846 3.103-1.475 2.867.372h-.01Zm.259-20.267c.236-1.847 3.103-1.475 2.867.371-.236 1.847-3.103 1.475-2.867-.371Zm-8.175-1.678c-.393-.146-.506-.586-.382-.946.101-.315.202-.62.292-.934.023-.068.034-.136.057-.203 0-.011 0-.023.01-.045l.035-.135c.044-.17.078-.338.1-.507.034-.18.057-.349.068-.53 0-.078 0-.168.012-.247v-.124c0-.09-.012-.169-.034-.259a.328.328 0 0 0-.023-.101c0-.034-.056-.135-.011-.056.056.09 0-.023-.022-.045-.012-.034-.023-.057-.034-.09-.012-.034-.034-.057-.045-.09-.225-.338-.191-.744.135-1.014.28-.236.81-.191 1.012.135.944 1.441.247 3.322-.225 4.82-.124.382-.607.517-.945.382v-.011Zm-14.055-3.49c-.528-.687-.708-1.543-1.09-2.297-.18-.36.045-.789.382-.946a.748.748 0 0 1 .562 0c.18.078.304.214.382.382.282.586.461 1.217.765 1.79.045.068.079.136.135.203a.73.73 0 0 1-.135 1.014c-.292.248-.787.169-1.012-.135l.011-.012ZM11.12 88.15a.747.747 0 0 1-.382-.382c-.405-.822-.9-1.6-1.012-2.534-.045-.405.225-.743.618-.822.383-.067.776.237.821.62.012.112.034.225.068.337.202.653.55 1.228.854 1.836.18.36-.045.788-.382.945a.748.748 0 0 1-.562 0h-.023Zm-5.453 5.011c-.09.113-.18.236-.259.36-.022.023-.033.057-.056.08 0 0-.022.044-.045.067-.022.034-.034.067-.056.101-.191.36-.551.53-.945.383-.348-.124-.562-.608-.382-.946a6.626 6.626 0 0 1 1.158-1.576c.45-.45.934-.856 1.406-1.273.303-.27.776-.157 1.012.135.258.316.157.766-.135 1.014-.394.349-.798.698-1.18 1.058-.023.023-.102.09-.124.113-.045.045-.09.101-.135.157-.09.102-.18.214-.27.316l.011.011Zm9.063 2.601a.727.727 0 0 1 .27.473.762.762 0 0 1-.147.54l-.236.372c-.247.439-.46.89-.652 1.351a.723.723 0 0 1-.944.383c-.36-.135-.54-.597-.383-.946.304-.71.652-1.407 1.08-2.05.225-.337.708-.348 1.012-.134v.011Zm7.69 7.15c.248.304.17.777-.134 1.013a3.348 3.348 0 0 0-.304.27c-.382.394-.675.856-.956 1.329-.09.158-.303.248-.472.27a.724.724 0 0 1-.54-.146.727.727 0 0 1-.27-.473c-.033-.214.046-.372.147-.54.416-.699.877-1.363 1.518-1.858.315-.248.764-.169 1.012.135Zm1.507-5.754c.124-.923 1.552-.743 1.428.18-.123.924-1.551.743-1.428-.18Zm10.66 3.783c-.36-.135-.54-.596-.383-.945.304-.71.652-1.408 1.08-2.05.225-.338.708-.349 1.012-.135a.728.728 0 0 1 .27.473.763.763 0 0 1-.147.54l-.236.372c-.247.44-.46.89-.663 1.351a.723.723 0 0 1-.945.383l.012.011Zm3.272-8.275c-.315-.046 3.362-3.513 3.991-8.389.63-4.875-2.035-9.312-1.72-9.267.315.046 2.935 4.392 2.305 9.267-.63 4.876-4.262 8.422-4.576 8.377v.012Zm-9.749-1.261c-.315-.046 3.362-3.514 3.992-8.389.63-4.875-2.035-9.312-1.72-9.267.314.046 2.934 4.392 2.304 9.267-.63 4.876-4.261 8.422-4.576 8.377v.011Zm7.87 20.278c-.314-.045 3.363-3.513 3.992-8.388.63-4.876-2.035-9.312-1.72-9.267.315.045 2.935 4.391 2.305 9.267-.63 4.875-4.261 8.422-4.576 8.377v.011Zm-9.534-1.52c-.304-.113 4.037-2.714 5.678-7.341 1.642-4.628-.022-9.526.281-9.425.304.102 1.934 4.92.281 9.549-1.652 4.627-5.948 7.33-6.251 7.217h.011Zm15.326-16.27c-.045.315-8.996-.586-19.992-2.004-10.997-1.42-19.891-2.838-19.846-3.153.045-.315 8.995.586 19.992 2.004 10.997 1.419 19.89 2.838 19.846 3.153Zm118.624 67.941c.371-.101-2.17 5.518-.618 11.305 1.551 5.787 6.611 9.548 6.24 9.649-.371.102-5.341-3.591-6.893-9.379-1.551-5.787.9-11.473 1.271-11.575Zm11.57-3.107c.371-.102-2.17 5.517-.618 11.304 1.551 5.788 6.611 9.548 6.24 9.65-.371.101-5.341-3.592-6.893-9.379-1.551-5.788.9-11.474 1.271-11.575Zm-18.283-19.187c.371-.101-2.17 5.518-.618 11.305s6.611 9.548 6.24 9.649c-.371.102-5.341-3.591-6.892-9.379-1.552-5.787.899-11.473 1.27-11.575Zm11.447-2.724c.393-.023-3.284 4.931-2.991 10.921.292 5.99 4.441 10.731 4.048 10.753-.394.023-4.464-4.639-4.757-10.629-.292-5.99 3.306-11.023 3.688-11.045h.012Zm-9.726 25.457c-.102-.371 10.4-3.535 23.466-7.048 13.054-3.513 23.725-6.058 23.826-5.686.101.371-10.401 3.535-23.466 7.048-13.055 3.513-23.725 6.058-23.826 5.686Zm-.72-15.538c-1.001-3.749-.112-7.848 1.316-11.44-7.793 1.825-13.606 5.349-14.224 10.19-.574 4.549 6.42 10.033 11.727 13.636a5.673 5.673 0 0 1 1.923 7.183c-2.788 5.777-5.948 13.264-3.171 16.912 2.98 3.907 9.805 4.256 17.496 2.083-3.317-6.496-4.239-14.671-4.621-21.551-.124-2.274 3.395-2.24 3.519.023.36 6.508 1.158 14.401 4.498 20.425a55.254 55.254 0 0 0 7.027-3.175c-.27-.721-.506-1.464-.753-2.207-1.822-5.596-2.564-11.451-3.418-17.25-.326-2.218 3.081-3.153 3.407-.912.708 4.909 1.349 9.841 2.642 14.638.315 1.171.652 2.601 1.102 4.019a59.277 59.277 0 0 0 4.014-2.702c-1.462-3.029-2.406-6.35-3.992-9.312-1.068-2.004 1.968-3.783 3.036-1.79 1.316 2.455 2.125 5.191 3.261 7.724.169.383.349.766.517 1.149 2.744-2.32 5.127-4.797 7.095-7.319-.022-.023-.045-.034-.056-.056-1.484-1.363-2.991-2.692-4.824-3.547-1.585-.732-3.395-.89-4.891-1.779-1.956-1.16-.191-4.223 1.754-3.052 1.574.935 3.666 1.138 5.341 1.993 1.72.89 3.193 2.162 4.621 3.446.034.034.079.067.113.101 1.27-1.959 2.282-3.918 3.002-5.821-.731-.18-1.45-.383-2.136-.597-2.17-.664-1.248-4.065.933-3.4.832.259 1.698.506 2.575.698.112-.394.191-.8.247-1.216.169-1.34 1.72-3.153 1.293-4.47-.056-.158-.09-.327-.135-.484-.292-1.363-2.541-2.14-3.362-3.221-.776-1.024-1.765-1.835-2.912-2.466a25.597 25.597 0 0 0-2.743-2.094c-2.114 2.162-3.272 5.101-4.869 7.634-1.203 1.926-4.262.169-3.047-1.756 1.596-2.545 2.856-5.427 4.835-7.713-2.912-1.531-6.286-2.804-9.974-3.727-.011.124-.033.248-.045.36-.652 4.954-.517 10.9-3.44 15.189-1.271 1.87-4.329.113-3.048-1.756 1.462-2.151 1.901-4.842 2.249-7.364.326-2.376.54-4.774.866-7.15a50.521 50.521 0 0 0-2.665-.416 63.779 63.779 0 0 0-4.644-.406 7.682 7.682 0 0 0-.55.946c-2.204 4.369-1.979 9.762-1.968 14.525 0 2.274-3.52 2.252-3.52-.022 0-5.124-.078-10.765 2.081-15.527a60.454 60.454 0 0 0-7.961.608c-.281.54-.54 1.103-.776 1.666-1.192 2.927-2.17 6.508-1.338 9.649.585 2.196-2.811 3.108-3.407.912v-.011Zm9.119 22.959c.585 2.195-2.811 3.107-3.407.912-.596-2.196 2.811-3.108 3.407-.912Zm9.996-1.915c.506-.022.832.428.877.89l.101 1.193c0 .079.023.169.034.248v.056c0 .057.022.113.022.169.034.203.068.417.113.62.045.214.101.427.168.63.034.102.068.192.102.293l.067.135c.045.09.101.18.157.27l.068.102c.022.045.124.123.034.056-.102-.079.022.022.045.045.022.034.056.056.078.079.023.022.068.056.09.079.405.281.562.754.326 1.204-.213.406-.82.586-1.203.327-1.743-1.182-1.833-3.637-1.979-5.529-.045-.495.45-.855.889-.878l.011.011Zm17.462-2.601c.911.53 1.518 1.397 2.294 2.095.371.326.314.912 0 1.25-.147.168-.416.259-.63.259-.236 0-.439-.102-.619-.259-.595-.518-1.079-1.16-1.697-1.656-.079-.056-.158-.112-.236-.157-.428-.248-.54-.777-.327-1.205.214-.417.81-.552 1.204-.327h.011Zm1.372-10.685c.236 0 .438.101.618.259.843.732 1.765 1.385 2.316 2.376.248.428.09.946-.315 1.205-.393.259-.978.09-1.203-.316-.067-.124-.146-.236-.225-.349-.528-.642-1.191-1.126-1.81-1.666-.371-.327-.315-.912 0-1.25.146-.169.416-.259.63-.259h-.011Zm3.823-8.186a8.04 8.04 0 0 0 .123-.529c0-.034.011-.079.023-.112 0-.012 0-.068.011-.091 0-.045 0-.101.011-.146.045-.495.371-.856.888-.878.45-.023.922.428.877.889a7.88 7.88 0 0 1-.584 2.32c-.293.72-.652 1.396-.99 2.094-.213.439-.798.529-1.203.327-.438-.226-.528-.789-.326-1.205.281-.586.574-1.16.843-1.745.012-.034.068-.147.079-.192.034-.079.056-.157.09-.236.056-.158.113-.327.158-.484v-.012Zm-11.413 1.284c-.214-.045-.416-.225-.529-.405a.954.954 0 0 1-.09-.676c.034-.18.068-.349.09-.529.079-.608.102-1.216.113-1.835 0-.496.405-.856.888-.879.472-.022.888.428.877.89-.011.946-.079 1.88-.27 2.815-.101.484-.641.72-1.079.619Zm-11.986-4.481c-.428-.226-.551-.8-.326-1.205a8.39 8.39 0 0 0 .213-.439c.236-.62.36-1.284.461-1.948.034-.225.225-.417.405-.529.202-.136.45-.147.675-.09.213.045.416.225.528.405.135.225.124.439.09.675-.135.98-.36 1.937-.843 2.804-.248.428-.776.541-1.203.327Zm.967 7.183c.292 1.104-1.406 1.554-1.698.462-.292-1.092 1.405-1.554 1.698-.462Zm-13.763.698c.472-.022.888.428.877.89-.011.946-.079 1.88-.27 2.815-.101.484-.641.72-1.079.619-.214-.045-.416-.225-.529-.405a.954.954 0 0 1-.09-.676 7.02 7.02 0 0 0 .09-.529c.079-.608.102-1.216.113-1.835 0-.496.405-.856.888-.879Z"/>
    <path fill="#FFD082" d="m38.635 244.649 18.057 108.058h103.479l24.006-108.058H38.635Z"/>
    <path fill="#FF436C" d="M65.631 244.942 75.144 353h12.413L73.491 244.942h-7.86Zm37.241 0L107.425 353h11.582l-5.375-108.058h-10.76Zm39.725 0L140.944 353h9.523l2.069-108.058h-9.939Z" opacity=".75"/>
    <path fill="#FF436C" d="m179.882 263.959 1.821-8.197-139.718 8.918 2.024 12.092 135.884-12.813h-.011Zm-6.488 29.207-125.99 3.998 1.923 11.507 121.627-4.572 2.429-10.933h.011Zm-8.815 39.105-111.755-1.295 1.597 9.582 107.965 1.554 2.181-9.852.012.011Z" opacity=".75"/>
  </g>
  <defs>
    <clipPath id="a">
      <path fill="#fff" d="M0 0h282v353H0z"/>
    </clipPath>
  </defs>
</svg>
