<svg xmlns="http://www.w3.org/2000/svg" width="389" height="524" fill="none" viewBox="0 0 389 524">
  <path fill="#90BF96" d="M105.478 249.251c8.348.391 17.192.96 24.867 4.609 3.657 1.74 6.995 4.219 9.374 7.546 2.959 4.142 4.347 9.15 5.296 14.099 4.322 22.637 0 45.911-3.278 68.379-1.917 13.156-3.842 26.313-5.759 39.469-.235 1.604 2.194 2.292 2.43.679l5.271-36.108c1.757-12.036 3.632-23.605 4.767-35.479 1.134-11.875 1.336-23.546-.564-35.183-.849-5.169-2.051-10.423-4.64-15.024-2.178-3.87-5.389-7.028-9.172-9.277-8.517-5.068-18.941-5.806-28.592-6.256-1.623-.076-1.623 2.47 0 2.546Z"/>
  <path fill="#90BF96" d="M140.82 382.623c5.171-19.802 9.298-39.859 13.451-59.9 4.17-20.091 8.374-40.19 13.729-60.001 5.355-19.811 11.677-38.773 20.269-57.073 4.33-9.218 9.18-18.216 14.704-26.763 5.7-8.819 12.299-16.984 20.445-23.631 15.166-12.375 33.905-19.216 52.224-25.26 2.253-.747 4.515-1.477 6.776-2.207 1.539-.5.883-2.953-.672-2.453-18.597 6.018-37.63 12.223-53.889 23.453-8.331 5.754-15.494 12.791-21.58 20.914-6.087 8.123-11.577 17.545-16.352 26.865-9.273 18.096-16.267 37.304-21.933 56.835-5.667 19.531-10.198 40.14-14.435 60.409s-8.289 40.59-13.275 60.689a549.414 549.414 0 0 1-1.9 7.453c-.412 1.587 2.018 2.266 2.43.679l.008-.009Z"/>
  <path fill="#90BF96" d="M150.48 337.348c5.422-16.976 6.07-34.945 5.801-52.642-.269-17.698-1.186-36.371.504-54.57 1.69-18.223 4.649-36.371 8.348-54.289a546.198 546.198 0 0 1 13.535-52.379 544.155 544.155 0 0 1 18.58-50.699 507.11 507.11 0 0 1 2.707-6.264c.647-1.485-1.522-2.784-2.178-1.282a553.757 553.757 0 0 0-19.302 50.589 550.554 550.554 0 0 0-14.233 52.192c-3.884 17.621-6.978 35.675-9.088 53.721-1.084 9.269-1.816 18.572-1.959 27.908-.142 9.337.177 18.173.404 27.255.446 17.808.647 35.921-3.699 53.313a101.325 101.325 0 0 1-1.85 6.477c-.496 1.561 1.934 2.232 2.43.679v-.009Zm10.341 28.8c1.908-11.162 3.951-22.952 10.592-32.382 3.472-4.923 8.273-8.751 13.182-12.129 4.91-3.378 10.332-6.383 15.906-8.734a90.313 90.313 0 0 1 19.429-5.713c1.597-.28.916-2.733-.673-2.453a91.546 91.546 0 0 0-34.275 13.59c-5.221 3.42-10.425 7.325-14.325 12.273-3.582 4.541-6.07 9.795-7.869 15.287-2.085 6.375-3.262 12.995-4.389 19.59-.277 1.605 2.153 2.292 2.43.679l-.008-.008Z"/>
  <path fill="#90BF96" d="M160.316 358.407c-3.892-18.894-7.978-39.249-1.589-58.083 3.001-8.836 8.146-16.993 13.535-24.531 5.112-7.147 10.912-13.793 17.243-19.862a140.556 140.556 0 0 1 23.514-18.164c1.387-.849.118-3.056-1.269-2.198-15.394 9.481-28.929 21.89-39.807 36.405-5.641 7.529-10.862 15.66-14.426 24.411-3.742 9.184-4.902 19.183-4.549 29.046.404 11.357 2.632 22.553 4.918 33.646.328 1.605 2.766.926 2.43-.679v.009Z"/>
  <path fill="#90BF96" d="M153.153 346.159c8.206-14.871 7.407-32.416 4.935-48.704-1.32-8.717-3.068-17.375-4.733-26.033-1.74-9.074-3.548-18.13-5.506-27.153-3.884-17.867-8.407-35.616-14.317-52.914-2.943-8.607-6.238-17.095-9.937-25.405-3.439-7.724-7.096-15.66-14.116-20.727-3.379-2.436-7.238-4.126-11.139-5.509-4.279-1.519-8.676-2.75-13.09-3.803a147.37 147.37 0 0 0-27.902-3.904c-2.27-.102-4.54-.136-6.818-.136-1.622 0-1.622 2.546 0 2.546a144.72 144.72 0 0 1 27.583 2.555c4.464.858 8.895 1.919 13.258 3.192 4.01 1.163 8.037 2.436 11.795 4.269 3.758 1.834 7.062 4.202 9.735 7.41 2.673 3.209 4.54 6.842 6.297 10.534 3.817 8.038 7.154 16.305 10.164 24.674 6.053 16.824 10.702 34.122 14.661 51.565 3.935 17.332 7.331 34.826 10.45 52.328 2.825 15.839 5.086 33.078-.916 48.475a45.874 45.874 0 0 1-2.573 5.45c-.79 1.434 1.388 2.716 2.178 1.281l-.009.009Z"/>
  <path fill="#90BF96" d="M95.692 248.963c-.815.221 4.708-12.112 1.32-24.802s-14.401-20.931-13.586-21.152c.816-.221 11.627 7.868 15.015 20.558 3.388 12.689-1.933 25.175-2.749 25.396Zm14.645 48.916c-.815.221 4.708-12.112 1.32-24.802-3.388-12.689-14.401-20.931-13.586-21.152.816-.221 11.627 7.869 15.015 20.558 3.388 12.69-1.934 25.175-2.749 25.396Zm-24.901 6.001c-.85.043 7.137-10.831 6.498-23.961-.647-13.131-9.684-23.538-8.835-23.58.849-.043 9.71 10.177 10.357 23.308.647 13.131-7.171 24.191-8.02 24.233Zm21.109-55.876c.219.823-22.63 7.758-51.038 15.49C27.1 271.227 3.89 276.82 3.67 275.997c-.219-.823 22.632-7.758 51.038-15.49 28.407-7.733 51.619-13.327 51.837-12.503Zm1.598 34.087c2.194 8.225.244 17.223-2.842 25.108 16.957-4.015 29.593-11.756 30.921-22.383 1.253-9.973-13.998-22.001-25.549-29.886-5.086-3.472-6.877-10.169-4.203-15.754 6.061-12.681 12.921-29.122 6.877-37.101-6.49-8.581-21.346-9.337-38.075-4.541 7.221 14.251 9.256 32.17 10.088 47.278.278 4.974-7.398 4.915-7.667-.042-.79-14.269-2.547-31.584-9.81-44.8-5.07 1.885-10.215 4.227-15.285 6.969.58 1.587 1.11 3.2 1.64 4.83 3.968 12.265 5.607 25.115 7.457 37.839.706 4.872-6.684 6.935-7.398 2.012-1.564-10.755-2.96-21.585-5.768-32.102-.689-2.58-1.42-5.704-2.412-8.81a125.288 125.288 0 0 0-8.718 5.933c3.194 6.654 5.254 13.92 8.71 20.422 2.336 4.388-4.272 8.318-6.609 3.93-2.858-5.373-4.632-11.383-7.103-16.942a161.05 161.05 0 0 0-1.135-2.521c-5.961 5.084-11.148 10.525-15.419 16.067.042.043.084.085.135.128 3.236 2.979 6.507 5.899 10.508 7.775 3.439 1.612 7.39 1.944 10.644 3.887 4.245 2.538.428 9.252-3.826 6.706-3.43-2.054-7.978-2.479-11.618-4.372-3.733-1.943-6.944-4.736-10.063-7.545l-.252-.23c-2.758 4.304-4.952 8.607-6.524 12.775 1.589.39 3.144.84 4.649 1.299 4.716 1.443 2.724 8.912-2.01 7.469-1.815-.552-3.698-1.103-5.598-1.536a19.037 19.037 0 0 0-.538 2.673c-.37 2.954-3.741 6.91-2.808 9.804.11.348.21.704.286 1.069.639 2.98 5.523 4.686 7.314 7.054 1.69 2.241 3.833 4.023 6.33 5.407 1.8 1.596 3.8 3.132 5.969 4.6 4.582-4.761 7.112-11.195 10.576-16.755 2.623-4.21 9.273-.365 6.641 3.862-3.472 5.577-6.204 11.917-10.5 16.925 6.339 3.353 13.678 6.154 21.715 8.157.034-.263.067-.535.11-.798 1.42-10.864 1.11-23.919 7.473-33.324 2.766-4.091 9.433-.263 6.642 3.862-3.187 4.711-4.128 10.627-4.885 16.17-.714 5.22-1.16 10.466-1.874 15.686 1.908.339 3.842.653 5.809.908 3.346.424 6.725.713 10.113.883a17.82 17.82 0 0 0 1.202-2.08c4.776-9.591 4.288-21.423 4.254-31.872-.016-4.983 7.65-4.94 7.667.042.034 11.247.202 23.605-4.514 34.071 5.935-.076 11.778-.535 17.327-1.35a39.714 39.714 0 0 0 1.672-3.658c2.59-6.425 4.725-14.277 2.884-21.169-1.286-4.813 6.12-6.824 7.398-2.012l-.008-.017Zm-19.874-50.35c-1.286-4.813 6.12-6.825 7.398-2.012 1.278 4.813-6.12 6.824-7.398 2.012Zm7.768 41.014c-1.026.042-1.925-.934-1.909-1.944.034-2.071.169-4.134.572-6.171.21-1.061 1.396-1.579 2.354-1.358.454.102.916.484 1.152.883.269.467.302.976.202 1.494-.076.382-.135.772-.194 1.154-.16 1.333-.218 2.674-.244 4.015-.016 1.086-.882 1.884-1.925 1.927h-.008ZM66.52 235.951c-1.093.042-1.824-.942-1.908-1.944-.076-.874-.135-1.749-.236-2.614a12.016 12.016 0 0 0-.067-.544c0-.033-.008-.076-.017-.135a5.891 5.891 0 0 0-.058-.382 24.165 24.165 0 0 0-.253-1.358c-.1-.467-.227-.934-.37-1.384-.067-.212-.151-.424-.227-.636a3.23 3.23 0 0 1-.134-.298 6.162 6.162 0 0 0-.336-.602c-.05-.077-.093-.153-.143-.221-.06-.085-.278-.263-.084-.119.218.162-.05-.051-.101-.102-.06-.059-.118-.127-.177-.186-.059-.06-.134-.119-.193-.179-.891-.611-1.21-1.655-.706-2.639.454-.883 1.782-1.282 2.614-.713 3.783 2.597 3.985 7.961 4.321 12.129.093 1.078-.966 1.884-1.925 1.927Zm-37.982 5.746c-1.976-1.163-3.304-3.073-4.994-4.575-.807-.713-.681-1.995-.017-2.733.328-.365.9-.577 1.379-.577.513 0 .958.22 1.337.56 1.286 1.146 2.345 2.538 3.69 3.624.168.119.345.247.521.357.925.543 1.186 1.706.707 2.64-.48.925-1.749 1.222-2.615.713l-.008-.009Zm-2.96 23.452c-.512 0-.958-.229-1.336-.56-1.825-1.612-3.834-3.038-5.053-5.22-.53-.942-.201-2.071.681-2.648.858-.56 2.127-.195 2.623.687.152.272.32.527.496.773 1.135 1.4 2.598 2.47 3.943 3.65.807.713.68 1.994.017 2.733-.328.365-.9.577-1.379.577l.008.008Zm-8.306 17.961c-.109.382-.193.772-.269 1.163-.016.085-.033.17-.042.246 0 .034-.016.136-.033.204-.009.11-.026.212-.034.322-.1 1.078-.815 1.876-1.925 1.927-.975.043-2-.934-1.908-1.944.16-1.765.588-3.446 1.26-5.075.64-1.571 1.405-3.073 2.153-4.592.47-.968 1.748-1.172 2.614-.713.959.5 1.144 1.731.706 2.639a159.842 159.842 0 0 0-1.824 3.837c-.025.068-.143.331-.176.416-.068.17-.126.348-.194.518-.126.348-.235.704-.336 1.061l.008-.009Zm24.834-2.826c.454.101.917.483 1.152.882.27.467.303.976.202 1.494-.076.382-.135.773-.193 1.155-.16 1.332-.219 2.673-.244 4.014-.017 1.087-.883 1.885-1.925 1.927-1.026.043-1.925-.934-1.909-1.944.034-2.071.168-4.133.572-6.17.21-1.061 1.395-1.579 2.354-1.358h-.009Zm26.095 9.812c.925.483 1.203 1.765.707 2.639a10.17 10.17 0 0 0-.471.968c-.521 1.367-.79 2.818-.992 4.269-.067.484-.488.909-.874 1.163-.438.289-.984.314-1.48.204-.454-.102-.916-.484-1.152-.883-.286-.483-.277-.95-.202-1.494.303-2.139.774-4.252 1.842-6.145.53-.942 1.698-1.197 2.614-.713l.008-.008Zm-2.118-15.771c-.639-2.411 3.06-3.412 3.699-1.01.639 2.402-3.06 3.412-3.699 1.01Zm4.439-18.512c-.816.22 4.708-12.113 1.32-24.802-3.388-12.69-14.401-20.932-13.586-21.152.816-.221 11.627 7.868 15.015 20.558 3.388 12.689-1.934 25.175-2.75 25.396ZM301.081 95.56c2.792-8.039 9.425-14.354 16.385-19.099-16.233-6.357-30.996-7.163-38.032.84-6.608 7.521-.757 26.135 4.371 39.232 2.262 5.772-.008 12.316-5.338 15.397-12.098 7.003-26.944 16.671-26.423 26.704.563 10.779 12.4 19.87 28.886 25.447 2.009-15.881 10.349-31.83 18.109-44.774 2.555-4.261 8.852.161 6.305 4.405-7.331 12.222-15.561 27.518-16.957 42.567 5.237 1.333 10.794 2.334 16.503 2.962.412-1.638.874-3.276 1.345-4.923 3.59-12.384 9.416-23.927 15.006-35.479 2.144-4.431 9.399-1.91 7.239 2.554-4.725 9.77-9.626 19.506-13.191 29.785-.874 2.521-2.018 5.517-2.934 8.649 3.489.178 7.011.195 10.517.076 1.085-7.308 3.455-14.489 4.237-21.822.53-4.957 8.18-4.422 7.651.526-.648 6.06-2.539 12.036-3.615 18.029-.16.908-.32 1.816-.471 2.724 7.768-.798 15.09-2.334 21.715-4.473-.017-.059-.025-.119-.042-.178-1.009-4.304-2.068-8.573-4.33-12.41-1.942-3.293-5.01-5.814-6.608-9.277-2.085-4.516 4.818-7.877 6.911-3.361 1.681 3.65 5.204 6.595 7.146 10.236 2.001 3.735 3.085 7.869 4.085 11.96l.076.331c4.683-1.986 8.895-4.278 12.526-6.825a87.913 87.913 0 0 1-3.11-3.726c-3.085-3.879 2.741-8.912 5.834-5.016 1.186 1.494 2.43 3.022 3.767 4.465a18.833 18.833 0 0 0 1.942-1.902c1.958-2.224 6.952-3.573 7.801-6.493.101-.357.227-.705.362-1.044 1.135-2.818-1.934-7.02-2.094-9.99-.143-2.81-.916-5.509-2.202-8.073-.589-2.342-1.387-4.753-2.354-7.197-6.448 1.315-12.14 5.186-18.1 7.8-4.523 1.986-7.861-4.982-3.329-6.977 5.977-2.623 11.786-6.307 18.133-7.979-3.354-6.383-7.852-12.876-13.358-19.115-.177.204-.353.399-.53.594-7.247 8.157-14.292 19.107-24.809 23.249-4.573 1.8-7.927-5.161-3.329-6.977 5.263-2.071 9.349-6.417 13.073-10.559 3.506-3.896 6.81-7.979 10.324-11.875a115.852 115.852 0 0 0-4.288-4.057 134.831 134.831 0 0 0-7.852-6.493c-.723.288-1.438.628-2.152 1.027-9.307 5.194-15.519 15.236-21.337 23.876-2.774 4.126-9.079-.288-6.305-4.405 6.263-9.294 13.039-19.599 22.774-25.549-4.943-3.319-10.021-6.272-15.057-8.76a40.25 40.25 0 0 0-3.43 2.063c-5.733 3.828-11.879 9.09-14.224 15.83-1.631 4.711-8.869 2.139-7.238-2.555l.016.034Zm-11.761 52.88c-1.631 4.71-8.861 2.139-7.238-2.555 1.631-4.711 8.861-2.139 7.238 2.555Zm20.303 8.92c.933.586.975 1.817.487 2.691-.428.764-.865 1.52-1.269 2.292l-.252.484c-.017.025-.034.068-.059.119-.059.11-.109.229-.168.348-.194.415-.379.84-.547 1.264-.176.442-.336.9-.47 1.358-.059.213-.11.433-.169.654-.016.11-.033.212-.05.322-.034.23-.05.459-.059.688v.272c0 .101.076.373 0 .144-.084-.263.017.068.025.136.017.085.026.169.042.254.017.085.051.17.068.255.395 1.01.075 2.054-.9 2.58-.866.467-2.194.043-2.556-.908-1.673-4.303 1.169-8.844 3.212-12.477.529-.942 1.849-1.002 2.665-.493v.017Zm34.561 16.917c.983 2.088 1.008 4.422 1.563 6.629.261 1.053-.555 2.037-1.513 2.266-.471.111-1.068-.034-1.454-.305-.421-.289-.664-.73-.791-1.222-.42-1.681-.512-3.43-1.017-5.093-.075-.195-.143-.399-.235-.594-.463-.976-.025-2.088.899-2.581.908-.492 2.127-.008 2.556.909l-.008-.009Zm15.552-17.663c.421.297.665.729.791 1.222.605 2.368 1.462 4.694 1.252 7.189-.092 1.078-.992 1.825-2.043 1.8-1.025-.026-1.866-1.053-1.782-2.063.025-.306.025-.62.017-.925-.16-1.808-.765-3.514-1.211-5.263-.269-1.044.555-2.037 1.514-2.266.47-.11 1.067.034 1.454.306h.008Zm16.907-10.084a15.752 15.752 0 0 0 1.051-.985c.025-.025.092-.102.134-.153.067-.084.135-.161.202-.246.681-.84 1.723-1.086 2.665-.492.824.526 1.126 1.91.487 2.691a17.073 17.073 0 0 1-3.883 3.471c-1.404.934-2.884 1.732-4.338 2.564-.934.534-2.094-.026-2.556-.909-.513-.959.025-2.088.899-2.58 1.228-.696 2.447-1.4 3.649-2.13l.37-.238a8.02 8.02 0 0 0 .445-.323c.295-.22.589-.45.866-.687l.009.017Zm-22.085-11.824c-.32-.348-.488-.917-.454-1.384.033-.534.302-.976.672-1.341.278-.271.547-.551.807-.84.883-1.01 1.682-2.079 2.447-3.174.622-.883 1.782-1.053 2.665-.493.874.552 1.059 1.868.487 2.691-1.185 1.689-2.454 3.319-3.917 4.762-.765.755-2.035.509-2.699-.221h-.008Zm-16.049-22.968c-.488-.926 0-2.139.9-2.581.319-.161.63-.339.933-.526 1.193-.832 2.228-1.876 3.203-2.954.328-.365.908-.467 1.37-.458.521.008.984.305 1.328.679.32.348.488.916.454 1.383-.042.569-.311.943-.672 1.341-1.446 1.596-3.01 3.065-4.96 4.024-.967.475-2.068.017-2.556-.908Zm-7.07 14.217c-.816 2.351-4.431 1.069-3.615-1.282.815-2.351 4.43-1.069 3.615 1.282Zm-25.599-15.788c.874.552 1.059 1.868.487 2.691-1.185 1.689-2.455 3.319-3.917 4.762-.765.755-2.035.509-2.699-.221-.319-.348-.488-.917-.454-1.384.034-.534.303-.976.673-1.341.277-.271.546-.551.807-.84.882-1.01 1.681-2.079 2.446-3.174.622-.883 1.782-1.053 2.665-.493h-.008Zm-13.023 19.845c.799.28-10.66 7.317-14.955 19.726-4.305 12.41.184 25.481-.614 25.201-.799-.28-5.196-13.122-.891-25.532 4.304-12.409 15.67-19.675 16.469-19.395h-.009Zm24.599 8.692c.799.28-10.66 7.317-14.956 19.726-4.304 12.409.185 25.481-.614 25.201-.798-.28-5.195-13.123-.891-25.532 4.305-12.41 15.671-19.675 16.469-19.395h-.008Zm-9.332-57.413c.799.28-10.66 7.317-14.956 19.726-4.295 12.41.185 25.481-.613 25.201-.799-.28-5.196-13.122-.891-25.532 4.304-12.41 15.67-19.675 16.469-19.395h-.009Zm23.91 9.243c.723.45-11.955 4.873-18.765 16.077-6.809 11.204-5.17 24.946-5.893 24.496-.723-.45-2.32-13.937 4.489-25.141 6.81-11.204 19.446-15.873 20.169-15.431Zm-48.676 34.08c.277-.807 23.018 6.493 50.786 16.314 27.768 9.812 50.055 18.427 49.777 19.234-.277.806-23.018-6.494-50.786-16.314-27.768-9.813-50.055-18.428-49.777-19.234Zm-58.117 178.018c.344.043-3.615 3.913-4.221 9.278-.605 5.364 2.371 10.194 2.018 10.151-.353-.042-3.262-4.778-2.657-10.151.606-5.365 4.507-9.32 4.851-9.286l.009.008Zm10.643 1.231c.344.043-3.615 3.913-4.22 9.278-.606 5.364 2.37 10.194 2.017 10.151-.353-.042-3.262-4.779-2.656-10.151.605-5.365 4.506-9.32 4.85-9.286l.009.008Zm-8.903-22.154c.345.043-3.615 3.913-4.22 9.278-.606 5.364 2.37 10.194 2.017 10.151-.353-.042-3.262-4.778-2.656-10.151.605-5.365 4.506-9.32 4.85-9.286l.009.008Zm10.416 1.511c.328.111-4.355 3.048-6.07 8.166-1.723 5.11.177 10.474-.159 10.355-.337-.119-2.186-5.373-.463-10.483 1.724-5.109 6.364-8.148 6.692-8.029v-.009Zm-16.435 18.122c.042-.348 9.81.493 21.824 1.876 12.013 1.384 21.715 2.793 21.681 3.141-.033.348-9.811-.493-21.824-1.876-12.014-1.384-21.715-2.793-21.681-3.141Zm4.497-13.267c.395-3.48 2.489-6.62 4.851-9.158-7.079-1.061-13.064-.026-15.166 3.828-1.976 3.616 2.051 10.542 5.288 15.321a5.16 5.16 0 0 1-.757 6.663c-4.22 3.921-9.298 9.15-8.188 13.122 1.194 4.27 6.759 6.825 13.863 7.546-.622-6.544 1.286-13.708 3.228-19.599.639-1.943 3.565-.747 2.926 1.189-1.841 5.568-3.758 12.452-2.959 18.614a48.852 48.852 0 0 0 6.885-.331c.017-.696.059-1.392.101-2.097.319-5.296 1.622-10.448 2.824-15.592.463-1.969 3.59-1.63 3.128.365-1.017 4.346-2.102 8.7-2.606 13.148-.126 1.086-.311 2.393-.395 3.734a52.06 52.06 0 0 0 4.22-.933c-.219-3.03.075-6.12-.269-9.133-.236-2.037 2.875-2.521 3.11-.493.286 2.487.068 5.059.177 7.555.017.382.034.755.059 1.137 3.043-1.035 5.834-2.317 8.297-3.786a.231.231 0 0 0-.033-.067c-.79-1.63-1.598-3.243-2.85-4.575-1.076-1.138-2.531-1.868-3.481-3.107-1.244-1.621 1.219-3.599 2.464-1.978 1 1.307 2.673 2.165 3.783 3.446 1.135 1.316 1.942 2.869 2.715 4.423.017.042.042.084.059.127 1.698-1.222 3.178-2.53 4.405-3.888a33.089 33.089 0 0 1-1.58-1.205c-1.589-1.273.294-3.819 1.891-2.546.614.492 1.244.984 1.909 1.443.218-.297.428-.611.605-.943.58-1.069 2.463-2.071 2.547-3.318.009-.153.025-.306.051-.45.201-1.231-1.404-2.631-1.741-3.811-.311-1.112-.865-2.122-1.605-3.03a23.525 23.525 0 0 0-1.589-2.666c-2.463 1.121-4.397 3.192-6.549 4.788-1.631 1.205-3.598-1.274-1.959-2.487 2.161-1.596 4.153-3.608 6.549-4.864-1.917-2.249-4.304-4.439-7.079-6.434-.05.093-.109.195-.159.289-2.169 3.93-4.01 8.971-7.852 11.594-1.673 1.138-3.641-1.341-1.959-2.487 1.925-1.315 3.169-3.429 4.287-5.432 1.051-1.884 2.01-3.82 3.069-5.704a43.248 43.248 0 0 0-2.085-1.231 57.398 57.398 0 0 0-3.733-1.884c-.26.187-.521.382-.773.611-3.262 2.937-4.851 7.529-6.406 11.527-.74 1.91-3.666.721-2.926-1.189 1.673-4.303 3.464-9.048 6.827-12.324a54.438 54.438 0 0 0-6.827-2.131c-.412.365-.815.747-1.185 1.138-1.951 2.062-3.943 4.736-4.271 7.647-.235 2.038-3.363 1.673-3.127-.365l-.009-.017Zm.051 22.273c-.227 2.037-3.363 1.672-3.128-.365.236-2.037 3.363-1.672 3.128.365Zm8.936 1.715c.429.152.555.636.437 1.035-.1.348-.21.688-.302 1.036-.017.076-.042.144-.059.22 0 .017 0 .034-.017.051-.008.051-.025.102-.034.153-.042.187-.075.373-.109.56-.033.195-.05.391-.067.586 0 .093 0 .187-.008.28 0 .042-.001.085.008.136 0 .093.017.187.034.28 0 .034.016.076.025.11.008.043.067.145.017.06-.059-.094.008.025.025.051.017.034.025.067.042.093.017.034.033.068.05.093.244.365.219.815-.126 1.121-.302.263-.874.22-1.11-.128-1.059-1.57-.327-3.649.169-5.296.126-.424.655-.577 1.025-.441Zm7.474-20.94c-.277-.323-.193-.858.126-1.121.118-.093.219-.195.328-.297.403-.441.723-.959 1.017-1.477.101-.178.32-.271.505-.305.21-.043.42.034.596.152.16.111.278.323.303.51.034.229-.042.407-.151.602-.437.773-.933 1.503-1.623 2.071-.344.281-.824.196-1.109-.127l.008-.008Zm-1.555 6.349c-.118 1.018-1.682.831-1.564-.179.118-1.01 1.681-.831 1.564.179Zm-11.678-3.981c.396.144.597.653.438 1.035-.32.79-.681 1.554-1.144 2.267-.235.373-.773.39-1.101.161a.788.788 0 0 1-.303-.509c-.033-.221.034-.416.152-.603.084-.136.168-.272.243-.407.261-.484.488-.985.698-1.494a.806.806 0 0 1 1.026-.442l-.009-.008Zm21.135 22.179c.581.747.799 1.681 1.219 2.512.202.399-.042.866-.403 1.053a.806.806 0 0 1-.614.008.825.825 0 0 1-.429-.416c-.319-.636-.512-1.332-.865-1.952-.051-.076-.093-.144-.152-.212-.269-.348-.202-.832.126-1.12.32-.281.849-.204 1.11.127h.008Zm4.641-8.505a.825.825 0 0 1 .429.416c.454.891 1.009 1.748 1.152 2.767a.814.814 0 0 1-.656.908c-.412.085-.841-.254-.9-.662a2.898 2.898 0 0 0-.075-.373c-.227-.713-.622-1.341-.959-1.995-.202-.399.042-.866.404-1.053a.813.813 0 0 1 .613-.008h-.008Zm5.868-5.594c.101-.127.193-.263.278-.399.016-.025.033-.059.05-.084 0-.009.025-.051.042-.077.017-.042.042-.076.059-.119.202-.399.597-.594 1.026-.441.378.136.622.662.437 1.035a7.075 7.075 0 0 1-1.245 1.749c-.479.501-1 .959-1.504 1.426-.328.297-.841.178-1.11-.127-.294-.34-.177-.841.126-1.121.429-.39.849-.789 1.269-1.188l.127-.127c.05-.06.1-.111.151-.17.101-.119.193-.238.286-.357h.008Zm-9.912-2.716a.785.785 0 0 1-.302-.509c-.034-.221.033-.416.151-.603.084-.136.168-.271.244-.407.26-.484.487-.985.698-1.494a.804.804 0 0 1 1.025-.441c.395.144.597.653.437 1.035-.319.79-.681 1.553-1.143 2.266-.235.374-.773.391-1.101.162l-.009-.009Z"/>
  <path fill="#90BF96" d="M209.446 63.814c.79-.305-3.388 12.554 1.328 24.802 4.717 12.248 16.545 19.251 15.755 19.557-.79.305-12.4-6.57-17.117-18.818-4.716-12.248-.756-25.235.034-25.55v.01Zm24.288-9.532c.79-.305-3.388 12.554 1.328 24.802s16.545 19.251 15.755 19.557c-.791.305-12.401-6.57-17.117-18.818-4.716-12.248-.757-25.235.034-25.55v.01Zm-40.194-22.06c-3.051-7.936-2.076-17.095.16-25.269-16.427 5.823-28.172 14.897-28.365 25.6-.185 10.05 16.251 20.354 28.575 26.941 5.431 2.903 7.919 9.362 5.86 15.21-4.683 13.259-9.752 30.354-2.892 37.636 7.364 7.826 22.219 6.969 38.335.391-8.692-13.386-12.627-30.981-15.056-45.912-.799-4.923 6.826-5.687 7.625-.79 2.295 14.1 5.884 31.126 14.518 43.476 4.843-2.419 9.71-5.313 14.452-8.581a145.733 145.733 0 0 1-2.144-4.626c-5.246-11.764-8.247-24.37-11.433-36.813-1.219-4.77 5.91-7.613 7.146-2.8 2.698 10.525 5.237 21.143 9.146 31.295.959 2.487 2.018 5.517 3.338 8.496a123.485 123.485 0 0 0 8.037-6.841c-3.884-6.273-6.701-13.275-10.828-19.361-2.791-4.117 3.362-8.734 6.154-4.618 3.413 5.034 5.817 10.814 8.86 16.076.463.798.925 1.588 1.396 2.386 5.389-5.704 9.962-11.671 13.628-17.647-.051-.034-.093-.076-.143-.11-3.54-2.615-7.096-5.16-11.274-6.587-3.59-1.23-7.549-1.129-10.996-2.716-4.498-2.071-1.413-9.15 3.085-7.087 3.623 1.663 8.197 1.595 12.022 3.09 3.918 1.527 7.406 3.955 10.803 6.407.092.068.176.136.269.204 2.278-4.575 4.01-9.09 5.128-13.41a88.823 88.823 0 0 1-4.767-.79c-4.842-.925-3.657-8.573 1.211-7.648 1.866.357 3.792.705 5.734.917.142-.891.235-1.8.252-2.716.05-2.971 2.984-7.274 1.748-10.059a9.775 9.775 0 0 1-.395-1.027c-.95-2.894-5.985-4.065-8.02-6.221-1.925-2.046-4.245-3.59-6.868-4.686a57.484 57.484 0 0 0-6.423-3.93c-4.052 5.229-5.885 11.909-8.735 17.808-2.161 4.473-9.18 1.367-7.02-3.115 2.858-5.916 4.901-12.52 8.642-17.969-6.658-2.648-14.258-4.634-22.463-5.763 0 .271-.017.534-.017.798-.26 10.95 1.438 23.902-3.892 33.943-2.32 4.371-9.349 1.282-7.02-3.115 2.665-5.025 2.968-11.017 3.136-16.603.16-5.262.042-10.533.202-15.796a110.895 110.895 0 0 0-5.877-.271c-3.371-.06-6.767.025-10.147.22a19.386 19.386 0 0 0-.975 2.199c-3.733 10.058-1.984 21.763-.849 32.152.546 4.957-7.087 5.738-7.625.79-1.228-11.17-2.707-23.444.866-34.36-5.894.722-11.652 1.808-17.083 3.226a41.239 41.239 0 0 0-1.278 3.82c-1.892 6.67-3.178 14.709-.622 21.363 1.791 4.652-5.364 7.445-7.146 2.802l.025-.009Zm25.103 47.906c1.791 4.652-5.355 7.444-7.146 2.801-1.79-4.651 5.356-7.444 7.146-2.8Zm21.169-6.535c1.084-.162 1.917.738 2.102 1.731.168.857.319 1.723.512 2.58.042.179.085.357.118.535 0 .034.017.077.034.128.033.127.067.246.101.373.117.441.252.883.395 1.324a12.685 12.685 0 0 0 .815 1.944c.059.093.11.187.168.28.126.195.253.382.395.56.059.068.11.136.169.204.067.076.302.238.092.11-.235-.144.059.043.109.085.068.06.127.11.194.161.067.051.143.102.218.153.95.51 1.379 1.511.984 2.547-.353.925-1.639 1.468-2.522.993-4.044-2.173-4.809-7.487-5.591-11.587-.201-1.06.757-1.977 1.715-2.121h-.008Zm37.158-9.83c2.094.943 3.607 2.7 5.448 4.015.874.628.891 1.91.311 2.716-.286.4-.832.671-1.303.722-.504.05-.975-.119-1.387-.407-1.404-1.002-2.606-2.267-4.052-3.209-.185-.102-.37-.204-.563-.297-.976-.441-1.362-1.57-.984-2.546.378-.968 1.606-1.41 2.522-.994h.008Zm.446-23.63c.513-.051.975.119 1.387.407 1.984 1.4 4.136 2.606 5.582 4.643.631.883.421 2.037-.395 2.708-.79.654-2.093.424-2.682-.399-.176-.255-.378-.484-.58-.713-1.278-1.273-2.841-2.173-4.304-3.209-.883-.62-.891-1.91-.311-2.716.286-.399.832-.67 1.303-.721Zm6.356-18.759c.067-.39.117-.789.143-1.18 0-.084.008-.17.016-.254 0-.034 0-.144.009-.204v-.322c-.017-1.087.613-1.961 1.715-2.122.967-.145 2.085.713 2.102 1.731a17.449 17.449 0 0 1-.715 5.186c-.471 1.63-1.076 3.209-1.648 4.796-.37 1.019-1.614 1.35-2.522.993-1.009-.399-1.328-1.596-.984-2.546.48-1.333.959-2.665 1.404-4.015.026-.076.11-.348.127-.424.05-.179.092-.357.134-.535.084-.365.16-.73.219-1.095v-.009Zm-24.397 5.5c-.463-.05-.959-.381-1.236-.755-.32-.433-.404-.942-.353-1.46.034-.39.059-.78.067-1.171.017-1.341-.067-2.682-.185-4.023-.101-1.078.673-1.97 1.715-2.122 1.017-.153 2.009.721 2.102 1.731.185 2.063.269 4.125.084 6.196-.101 1.078-1.219 1.724-2.194 1.605Zm-26.986-6.925c-.967-.383-1.379-1.622-.984-2.547.143-.331.261-.67.37-1.01.37-1.417.487-2.886.538-4.354.017-.493.387-.951.748-1.248.404-.331.95-.416 1.446-.357.463.051.959.382 1.236.756.336.458.37.917.353 1.46-.076 2.164-.311 4.312-1.177 6.315-.429.993-1.564 1.375-2.522.993l-.008-.009Zm3.783 15.448c.891 2.325-2.682 3.726-3.573 1.4s2.682-3.726 3.573-1.4Zm-29.618 4.795c1.017-.153 2.009.722 2.102 1.732.185 2.062.269 4.125.084 6.196-.101 1.078-1.219 1.723-2.194 1.604-.463-.05-.959-.382-1.236-.755-.32-.433-.404-.942-.353-1.46.033-.39.059-.78.067-1.171.017-1.342-.067-2.683-.185-4.024-.101-1.078.673-1.969 1.715-2.122Zm-16.881-23.418c.79-.306-3.388 12.554 1.328 24.802 4.717 12.248 16.545 19.25 15.755 19.556-.79.306-12.4-6.57-17.117-18.818-4.716-12.248-.756-25.235.034-25.549v.009Zm24.119-8.666c.833-.136-5.952 11.543-3.909 24.521 2.035 12.979 12.123 22.35 11.291 22.485-.833.136-10.736-9.073-12.77-22.052-2.035-12.978 4.556-24.827 5.397-24.954h-.009Zm-15.056 57.837c-.303-.798 21.673-10.169 49.096-20.931 27.423-10.763 49.904-18.844 50.206-18.046.303.798-21.673 10.169-49.096 20.931-27.424 10.763-49.904 18.844-50.206 18.046Zm-152.275 83.64c-.571 4.457-3.32 8.454-6.397 11.671 9.079 1.494 16.788.289 19.563-4.626 2.606-4.609-2.439-13.589-6.5-19.794-1.79-2.733-1.327-6.366 1.094-8.547 5.49-4.957 12.123-11.586 10.77-16.713-1.455-5.508-8.56-8.904-17.68-9.965.68 8.429-1.909 17.587-4.515 25.133-.858 2.487-4.59.892-3.733-1.578 2.463-7.122 5.07-15.932 4.162-23.86a63.793 63.793 0 0 0-8.853.288 58.512 58.512 0 0 1-.168 2.691c-.513 6.799-2.278 13.403-3.918 19.989-.63 2.521-4.649 2.02-4.018-.526 1.387-5.568 2.867-11.136 3.598-16.849.177-1.4.446-3.072.58-4.795-1.824.297-3.64.67-5.44 1.12.228 3.896-.218 7.868.169 11.747.26 2.623-3.75 3.192-4.01.569-.32-3.2.008-6.502-.084-9.719l-.05-1.46c-3.927 1.265-7.542 2.869-10.736 4.703.017.025.025.059.042.085.983 2.113 1.992 4.201 3.581 5.933 1.362 1.485 3.22 2.453 4.422 4.066 1.564 2.105-1.64 4.6-3.203 2.495-1.261-1.698-3.396-2.835-4.8-4.499-1.438-1.706-2.447-3.726-3.405-5.729-.025-.051-.05-.11-.076-.161-2.202 1.536-4.136 3.191-5.733 4.906.698.518 1.37 1.052 2.009 1.579 2.018 1.663-.454 4.906-2.472 3.233a39.32 39.32 0 0 0-2.43-1.892 8.937 8.937 0 0 0-.798 1.196c-.773 1.367-3.203 2.615-3.329 4.21a6.35 6.35 0 0 1-.076.578c-.286 1.587 1.757 3.412 2.16 4.931.38 1.435 1.069 2.75 2.01 3.93a31.99 31.99 0 0 0 1.993 3.463c3.186-1.392 5.708-4.015 8.507-6.026 2.119-1.52 4.599 1.706 2.472 3.234-2.808 2.011-5.406 4.558-8.508 6.119 2.421 2.929 5.448 5.789 8.97 8.404.068-.128.143-.247.21-.365 2.867-5.017 5.322-11.451 10.307-14.744 2.17-1.434 4.658 1.791 2.472 3.234-2.497 1.655-4.136 4.346-5.616 6.901-1.387 2.402-2.656 4.872-4.052 7.274.866.56 1.749 1.103 2.657 1.621a70.373 70.373 0 0 0 4.758 2.487 9.46 9.46 0 0 0 1-.764c4.246-3.709 6.373-9.583 8.45-14.693.991-2.436 4.724-.857 3.732 1.579-2.228 5.492-4.615 11.561-9.012 15.711a68.773 68.773 0 0 0 8.726 2.869c.538-.458 1.06-.942 1.547-1.443 2.547-2.605 5.154-6.009 5.641-9.744.336-2.614 4.346-2.088 4.019.526l-.009.017Zm.362-28.621c.336-2.614 4.346-2.088 4.018.526-.328 2.615-4.346 2.088-4.018-.526Zm-11.459-2.377c-.546-.203-.698-.832-.538-1.341.143-.441.286-.883.412-1.324l.076-.28c0-.017.008-.042.017-.068.016-.068.033-.127.05-.195a7.11 7.11 0 0 0 .143-.713c.042-.246.075-.501.092-.756.009-.118.009-.237.017-.356 0-.059 0-.11-.008-.17-.009-.119-.026-.237-.042-.365 0-.042-.017-.093-.026-.136-.008-.051-.084-.186-.016-.076.075.127-.017-.034-.026-.068l-.05-.127c-.017-.043-.042-.085-.059-.128-.31-.475-.26-1.052.185-1.434.395-.34 1.127-.263 1.42.187 1.33 2.037.354 4.702-.31 6.799-.168.543-.85.721-1.328.543l-.009.008Zm-19.689-4.931c-.731-.976-1-2.173-1.522-3.251-.252-.509.068-1.112.538-1.341.227-.111.555-.102.79 0 .253.102.421.305.539.543.403.823.639 1.715 1.076 2.521.059.093.118.187.185.28.345.458.235 1.078-.185 1.435-.42.356-1.101.237-1.42-.187Zm-6.129 10.847c-.252-.101-.42-.305-.538-.543-.571-1.154-1.26-2.266-1.42-3.573a1.04 1.04 0 0 1 .857-1.155c.53-.101 1.076.34 1.144.866.016.161.05.323.092.484.277.917.773 1.732 1.194 2.589.252.509-.068 1.112-.538 1.341-.227.11-.555.102-.79 0v-.009Zm-7.641 7.079c-.127.162-.253.34-.362.51-.025.034-.05.076-.076.11a1.42 1.42 0 0 1-.058.093l-.076.153c-.26.509-.774.756-1.328.543-.48-.178-.79-.865-.538-1.341a9.031 9.031 0 0 1 1.63-2.224c.623-.636 1.304-1.213 1.968-1.807.42-.374 1.084-.213 1.42.186.37.442.21 1.078-.184 1.435a92.79 92.79 0 0 0-1.657 1.502l-.168.17a4.417 4.417 0 0 0-.193.212c-.126.144-.252.297-.378.45v.008Zm12.686 3.676c.201.144.353.424.386.662.042.28-.05.535-.201.764-.118.169-.219.348-.328.526-.345.62-.64 1.265-.925 1.91-.227.526-.807.738-1.328.543-.513-.187-.749-.849-.538-1.341.428-1.002.908-1.986 1.513-2.895.31-.475 1-.483 1.42-.186v.017Zm10.777 10.1c.353.425.236 1.104-.185 1.435a6.146 6.146 0 0 0-.42.373c-.53.561-.95 1.214-1.337 1.885-.134.22-.42.339-.655.39-.27.051-.547-.051-.757-.204a1.054 1.054 0 0 1-.387-.662c-.042-.297.06-.517.202-.764.58-.984 1.227-1.918 2.127-2.622.445-.348 1.068-.238 1.42.186l-.008-.017Zm2.119-8.131c.168-1.307 2.177-1.044 2.01.263-.17 1.307-2.178 1.044-2.01-.263Zm14.93 5.339c-.512-.187-.748-.849-.538-1.341.43-1.002.908-1.986 1.514-2.895.31-.475 1-.483 1.42-.186.202.144.354.424.387.662.042.28-.05.534-.202.764-.117.169-.218.348-.327.526a23.5 23.5 0 0 0-.925 1.91c-.227.526-.807.738-1.329.543v.017ZM47 130.878c-.445-.059 4.717-4.957 5.6-11.841.882-6.884-2.85-13.148-2.405-13.088.445.059 4.102 6.213 3.22 13.097-.883 6.883-5.97 11.891-6.415 11.832Zm-13.653-1.783c-.445-.059 4.717-4.957 5.6-11.84.882-6.884-2.85-13.148-2.405-13.089.446.06 4.103 6.213 3.22 13.097-.883 6.884-5.969 11.892-6.415 11.832Zm11.03 28.639c-.445-.06 4.717-4.957 5.6-11.841.882-6.884-2.85-13.148-2.405-13.088.446.059 4.102 6.213 3.22 13.097-.883 6.883-5.97 11.891-6.415 11.832Zm-13.35-2.139c-.42-.153 5.65-3.837 7.953-10.372 2.304-6.536-.025-13.462.395-13.31.42.153 2.707 6.944.404 13.488-2.304 6.544-8.331 10.347-8.752 10.194Zm21.471-22.977c-.059.45-12.593-.823-28.011-2.835-15.41-2.012-27.861-4.006-27.802-4.456.059-.45 12.593.823 28.012 2.835 15.41 2.011 27.86 4.006 27.801 4.456Z"/>
  <path fill="#A891DD" d="M59.206 331.517c-.698 197.668 94.452 201.785 94.452 201.785 31.063 0 58.092-45.428 65.406-109.936l10.407-91.857H59.206v.008Z"/>
  <path fill="#FF436C" d="M108.059 393.276c4.875 0 8.827-3.991 8.827-8.913 0-4.922-3.952-8.912-8.827-8.912s-8.828 3.99-8.828 8.912c0 4.922 3.953 8.913 8.828 8.913Zm54.308-38.892c3.692 0 6.684-3.022 6.684-6.748 0-3.727-2.992-6.748-6.684-6.748-3.691 0-6.683 3.021-6.683 6.748 0 3.726 2.992 6.748 6.683 6.748Zm42.001 42.491c1.857 0 3.363-1.521 3.363-3.396s-1.506-3.395-3.363-3.395-3.363 1.52-3.363 3.395 1.506 3.396 3.363 3.396ZM98.929 426.608c2.553 0 4.624-2.09 4.624-4.668 0-2.579-2.071-4.669-4.624-4.669-2.554 0-4.624 2.09-4.624 4.669 0 2.578 2.07 4.668 4.624 4.668Zm-7.432 32.687c2.554 0 4.624-2.09 4.624-4.668 0-2.579-2.07-4.669-4.624-4.669s-4.624 2.09-4.624 4.669c0 2.578 2.07 4.668 4.624 4.668Zm-15.015-70.314a1.69 1.69 0 0 0 1.682-1.698 1.69 1.69 0 0 0-1.682-1.698 1.69 1.69 0 0 0-1.681 1.698 1.69 1.69 0 0 0 1.681 1.698Zm11.055-34.886c2.554 0 4.624-2.09 4.624-4.668 0-2.579-2.07-4.669-4.624-4.669-2.553 0-4.623 2.09-4.623 4.669 0 2.578 2.07 4.668 4.623 4.668Zm54.267 26.669c2.554 0 4.624-2.09 4.624-4.668 0-2.578-2.07-4.668-4.624-4.668s-4.624 2.09-4.624 4.668c0 2.578 2.07 4.668 4.624 4.668Zm66.423-22.909c2.554 0 4.624-2.09 4.624-4.668 0-2.578-2.07-4.669-4.624-4.669s-4.624 2.091-4.624 4.669c0 2.578 2.07 4.668 4.624 4.668Zm-84.078 140.052c3.483 0 6.306-2.85 6.306-6.366 0-3.516-2.823-6.366-6.306-6.366-3.482 0-6.305 2.85-6.305 6.366 0 3.516 2.823 6.366 6.305 6.366Zm29.433-19.522c2.089 0 3.783-1.71 3.783-3.82 0-2.109-1.694-3.82-3.783-3.82s-3.783 1.711-3.783 3.82c0 2.11 1.694 3.82 3.783 3.82Zm-23.548-29.708c2.09 0 3.783-1.71 3.783-3.82 0-2.109-1.693-3.819-3.783-3.819-2.089 0-3.783 1.71-3.783 3.819 0 2.11 1.694 3.82 3.783 3.82Zm44.91-7.665c1.393 0 2.522-1.14 2.522-2.546 0-1.407-1.129-2.547-2.522-2.547-1.393 0-2.522 1.14-2.522 2.547 0 1.406 1.129 2.546 2.522 2.546Zm15.074 15.329c.464 0 .84-.38.84-.848a.844.844 0 0 0-.84-.849.845.845 0 0 0-.841.849c0 .468.376.848.841.848Zm2.16-22.119c.697 0 1.261-.57 1.261-1.274 0-.703-.564-1.273-1.261-1.273-.696 0-1.261.57-1.261 1.273 0 .704.565 1.274 1.261 1.274Zm-33.981-11.867c2.322 0 4.204-1.9 4.204-4.244 0-2.343-1.882-4.244-4.204-4.244-2.321 0-4.203 1.901-4.203 4.244 0 2.344 1.882 4.244 4.203 4.244Zm30.282 49.732c1.857 0 3.363-1.521 3.363-3.396s-1.506-3.395-3.363-3.395-3.363 1.52-3.363 3.395 1.506 3.396 3.363 3.396Zm-43.8 44.468c1.393 0 2.522-1.14 2.522-2.546 0-1.407-1.129-2.547-2.522-2.547-1.393 0-2.522 1.14-2.522 2.547 0 1.406 1.129 2.546 2.522 2.546Zm46.659-138.354c.696 0 1.261-.57 1.261-1.273s-.565-1.273-1.261-1.273c-.697 0-1.262.57-1.262 1.273s.565 1.273 1.262 1.273Z" opacity=".75"/>
  <path fill="#90BF96" d="M218.66 228.558c.53-.145-3.035 7.8-.857 15.966 2.177 8.174 9.264 13.479 8.734 13.623-.529.144-7.482-5.076-9.659-13.241-2.178-8.174 1.252-16.204 1.782-16.348Zm16.2-4.397c.53-.144-3.035 7.8-.857 15.966 2.177 8.174 9.264 13.479 8.734 13.623-.529.144-7.482-5.076-9.659-13.241-2.178-8.174 1.253-16.204 1.782-16.348Zm-25.607-27.102c.529-.145-3.035 7.8-.858 15.966 2.178 8.165 9.265 13.479 8.735 13.623-.53.144-7.482-5.076-9.66-13.241-2.177-8.174 1.253-16.204 1.783-16.348Zm16.032-3.854c.546-.025-4.599 6.969-4.195 15.423.412 8.454 6.221 15.159 5.674 15.185-.546.025-6.246-6.561-6.658-15.007-.412-8.454 4.632-15.567 5.17-15.592l.009-.009Zm-13.62 35.955c-.142-.534 14.57-4.982 32.863-9.948 18.294-4.965 33.233-8.555 33.376-8.021.142.535-14.57 4.983-32.863 9.948-18.294 4.966-33.233 8.556-33.376 8.021Zm-1.008-21.941c-1.404-5.297-.152-11.085 1.841-16.161-10.912 2.572-19.05 7.554-19.916 14.395-.807 6.417 9.004 14.167 16.435 19.251 3.279 2.241 4.422 6.553 2.699 10.143-3.909 8.157-8.331 18.742-4.439 23.886 4.178 5.525 13.737 6.017 24.506 2.936-4.64-9.175-5.943-20.71-6.473-30.438-.177-3.208 4.758-3.157 4.935.034.496 9.184 1.622 20.338 6.297 28.843a77.232 77.232 0 0 0 9.836-4.474 88.412 88.412 0 0 1-1.051-3.106c-2.548-7.903-3.598-16.17-4.784-24.361-.454-3.14 4.305-4.456 4.767-1.29 1 6.926 1.9 13.895 3.699 20.668.446 1.664.908 3.676 1.555 5.679a78.276 78.276 0 0 0 5.616-3.82c-2.051-4.286-3.371-8.963-5.599-13.156-1.496-2.827 2.758-5.348 4.254-2.53 1.833 3.464 2.976 7.326 4.565 10.907.235.544.479 1.087.731 1.622 3.842-3.268 7.18-6.774 9.937-10.339-.025-.025-.059-.051-.084-.076-2.085-1.918-4.186-3.803-6.759-5.008-2.211-1.036-4.758-1.256-6.852-2.504-2.732-1.638-.269-5.959 2.464-4.32 2.202 1.324 5.136 1.595 7.482 2.818 2.404 1.256 4.464 3.047 6.473 4.863.051.051.109.102.16.145 1.774-2.767 3.195-5.535 4.203-8.225a56.441 56.441 0 0 1-2.993-.841c-3.034-.933-1.748-5.737 1.304-4.804 1.168.357 2.379.713 3.606.993.151-.56.278-1.137.345-1.723.244-1.901 2.413-4.447 1.816-6.315a6.725 6.725 0 0 1-.185-.687c-.412-1.919-3.556-3.022-4.7-4.541-1.093-1.443-2.471-2.598-4.069-3.48a36.998 36.998 0 0 0-3.842-2.963c-2.95 3.064-4.59 7.206-6.818 10.78-1.689 2.708-5.969.229-4.279-2.487 2.236-3.59 4.002-7.673 6.768-10.89-4.078-2.165-8.802-3.964-13.981-5.263-.025.17-.042.34-.067.51-.925 6.994-.732 15.397-4.826 21.449-1.782 2.631-6.07.161-4.279-2.487 2.051-3.03 2.657-6.842 3.153-10.407.462-3.361.748-6.739 1.219-10.1a72.843 72.843 0 0 0-3.741-.586 83.426 83.426 0 0 0-6.507-.569c-.278.416-.538.866-.774 1.333-3.077 6.171-2.774 13.793-2.757 20.516 0 3.208-4.927 3.174-4.935-.034-.017-7.241-.118-15.194 2.917-21.933-3.817.051-7.583.339-11.156.865a29.791 29.791 0 0 0-1.084 2.352c-1.673 4.133-3.044 9.192-1.867 13.631.824 3.098-3.942 4.389-4.766 1.29v.009Zm12.77 32.424c.824 3.098-3.943 4.388-4.767 1.29-.824-3.098 3.943-4.388 4.767-1.29Zm13.997-2.699c.706-.026 1.177.602 1.228 1.256.042.56.084 1.129.151 1.689.017.119.025.238.042.348 0 .017 0 .051.008.085.009.085.026.161.034.246.042.297.101.586.16.874.067.298.143.603.235.892.042.136.101.271.143.407.034.06.059.127.093.187.067.136.134.263.21.39l.092.145c.042.059.177.169.051.076-.143-.11.033.034.067.068.034.042.076.076.118.119.042.034.084.076.126.11.571.391.782 1.07.454 1.698-.295.568-1.152.823-1.682.458-2.438-1.672-2.555-5.127-2.774-7.809-.059-.696.622-1.214 1.244-1.239Zm24.456-3.684c1.269.755 2.127 1.978 3.211 2.954.522.458.438 1.282.009 1.765-.21.23-.58.374-.883.374-.328 0-.622-.144-.857-.357-.833-.738-1.514-1.638-2.371-2.334-.109-.076-.219-.161-.336-.229-.597-.348-.765-1.103-.454-1.698.302-.594 1.126-.789 1.681-.458v-.017Zm1.917-15.092c.328 0 .613.145.857.357 1.177 1.035 2.463 1.961 3.254 3.361.336.611.134 1.333-.437 1.706-.555.365-1.371.128-1.69-.441a9.48 9.48 0 0 0-.32-.501c-.731-.9-1.673-1.587-2.539-2.351-.521-.458-.437-1.29-.008-1.766.21-.237.58-.373.883-.373v.008Zm5.355-11.56c.067-.246.126-.493.176-.747l.026-.161c0-.017.017-.094.017-.128 0-.068.016-.136.016-.203.068-.696.53-1.214 1.245-1.24.63-.025 1.286.603 1.227 1.257a10.97 10.97 0 0 1-.815 3.267c-.412 1.01-.908 1.978-1.388 2.954-.302.628-1.126.756-1.681.459-.614-.323-.74-1.121-.454-1.698.404-.823.799-1.638 1.177-2.47.017-.042.092-.212.109-.263l.126-.331c.076-.229.152-.45.219-.688v-.008Zm-15.99 1.808c-.294-.068-.588-.314-.74-.569-.176-.297-.193-.628-.126-.959.051-.246.093-.492.126-.747.109-.857.143-1.723.16-2.589.008-.696.572-1.214 1.244-1.239.664-.026 1.236.603 1.228 1.256-.026 1.333-.11 2.665-.37 3.972-.135.679-.9 1.019-1.514.875h-.008Zm-16.789-6.324c-.596-.314-.773-1.137-.454-1.697.118-.204.211-.408.303-.62.336-.883.504-1.816.639-2.75.042-.314.311-.586.563-.747.278-.187.631-.204.95-.127.295.067.589.314.74.568.185.314.177.611.126.959-.193 1.375-.496 2.734-1.185 3.956-.345.602-1.093.764-1.682.458Zm1.354 10.152c.412 1.553-1.967 2.198-2.379.645-.412-1.553 1.967-2.198 2.379-.645Zm-19.286.993c.665-.026 1.236.603 1.228 1.256-.025 1.333-.109 2.665-.37 3.973-.135.679-.9 1.018-1.513.874-.295-.068-.589-.314-.74-.569-.177-.297-.193-.628-.126-.959.05-.246.092-.492.126-.747.109-.857.143-1.723.16-2.589.008-.696.571-1.214 1.244-1.239h-.009Z"/>
</svg>
