<svg xmlns="http://www.w3.org/2000/svg" width="916" height="594" fill="none" viewBox="0 0 916 594">
  <path fill="#fff" d="M807.834.757C759.845-2.64 715.223 39.443 691.42 103.164c-19.253-35.304-47.366-58.232-79.998-60.542-47.988-3.398-92.61 38.686-116.413 102.407-19.253-35.305-47.366-58.233-79.998-60.543-47.988-3.397-92.611 38.686-116.413 102.407-19.254-35.304-47.366-58.232-79.998-60.542-47.988-3.398-92.611 38.686-116.413 102.407-19.254-35.305-47.366-58.232-79.998-60.543-47.989-3.397-92.611 38.686-116.414 102.408-19.253-35.305-47.366-58.233-79.998-60.543-66.257-4.691-126.075 77.264-133.567 183.086-7.491 105.822 40.185 195.386 106.442 200.077 47.988 3.397 92.61-38.686 116.413-102.407 19.254 35.304 47.366 58.232 79.998 60.542 47.988 3.398 92.61-38.686 116.413-102.407 19.254 35.305 47.366 58.233 79.998 60.543 47.989 3.397 92.611-38.686 116.413-102.407 19.254 35.304 47.366 58.232 79.998 60.542 47.989 3.397 92.611-38.686 116.414-102.407 19.253 35.305 47.366 58.232 79.998 60.543 47.988 3.397 92.61-38.687 116.413-102.408 19.253 35.305 47.366 58.233 79.998 60.543 66.257 4.691 126.075-77.264 133.567-183.086C921.766 95.012 874.157 5.452 807.834.757Z"/>
</svg>
