<svg xmlns="http://www.w3.org/2000/svg" width="514" height="586" fill="none" viewBox="0 0 514 586">
  <path fill="#A891DD" d="M510.8 551.941c-.591.249-1.137.561-1.728.872.364-.187.727-.436 1.091-.623-3.773 2.24-7.138 5.601-10.456 8.836a591.005 591.005 0 0 0-10.411 10.267c-1.955 1.991-3.91 4.045-5.865 6.098.318-.311.591-.622.909-.996-2.273 2.365-4.455 4.916-6.774 7.218-2.819 2.863-6.729 3.298-9.684.498-2.091-1.991-3.773-4.729-5.637-7.156a122.355 122.355 0 0 0-5.183-6.471c-2-2.364-4.046-4.667-6.092-6.844.318.311.591.622.909.995-5.637-5.973-11.593-11.262-17.867-15.929a144.295 144.295 0 0 0-5.456-3.858c-1-.622-1.818-2.302-2.091-3.733-.318-1.494-.182-3.485.455-4.792.636-1.306 1.546-2.489 2.728-2.862 1.227-.373 2.364-.124 3.5.622 11.73 7.841 22.595 17.983 32.234 29.93 1.318 1.618 2.591 3.298 3.864 4.978 1.228 1.68 2.41 3.547 3.774 5.04a14.276 14.276 0 0 1-.91-.996c.364.374.728.685 1.183.996-.364-.187-.728-.436-1.092-.622.318.186.637.311.955.373-.409-.062-.818-.124-1.227-.249.272.062.591.062.863 0-.409.062-.818.125-1.227.249.318-.062.591-.187.864-.311-.364.187-.728.436-1.092.622.637-.373 1.183-.871 1.728-1.431a14.27 14.27 0 0 0-.909.996c8.956-9.521 17.867-19.103 27.323-27.628 2.728-2.489 5.592-4.604 8.729-6.035 1.091-.498 2.546-.125 3.501.622.955.746 1.864 2.24 2.091 3.733.728 3.36-.591 6.471-3 7.591Z"/>
  <path fill="#A891DD" d="M1.382 76.278C30.292 38.137 67.871 13.23 107.31 4.053c39.666-9.177 80.921-2.934 117.546 20.413 35.446 22.597 65.354 60.614 86.004 106.06 10.348 22.723 18.381 47.568 23.646 73.412 5.31 26.031 8.078 53.748 6.762 80.778-1.362 27.842-7.443 56.744-22.556 76.533-16.021 20.85-37.76 33.398-59.499 37.206-22.012 3.807-45.204.873-65.763-10.925-9.122-5.244-17.881-11.861-24.961-21.412-6.309-8.489-11.528-18.79-15.386-29.714-7.262-20.475-11.482-47.131-2.587-67.981 4.584-10.737 12.481-18.852 19.969-25.532 8.714-7.741 18.291-14.046 28.184-18.166 9.758-4.057 20.287-5.181 30.408-6.055 11.256-.936 22.511-.811 33.766.312 22.466 2.31 44.75 8.49 66.08 18.541 20.832 9.8 41.437 22.972 59.409 40.576 17.337 16.917 31.86 38.516 43.615 62.8 26.187 53.997 37.124 118.358 42.389 182.031 1.362 16.48 2.36 32.961 3.177 49.503.181 3.371-2.224 6.243-4.539 6.243-2.587 0-4.357-2.872-4.538-6.243-3.177-63.486-8.85-128.72-28.683-186.963-8.487-24.907-19.334-48.379-32.95-68.543-13.978-20.662-30.589-36.331-48.833-49.066-38.123-26.655-81.511-39.515-124.218-37.018-9.803.562-20.015 1.373-29.546 4.744-9.077 3.246-17.745 8.677-25.778 15.232-6.989 5.743-15.023 13.172-19.38 22.411-3.857 8.115-4.81 17.541-4.311 27.342 1.18 21.474 9.758 43.448 21.195 58.118 6.535 8.427 15.067 14.42 23.509 18.79 9.894 5.119 20.332 8.24 30.816 9.426 20.741 2.372 41.936-1.498 60.679-14.42 9.032-6.18 17.746-14.171 24.508-24.533 6.082-9.364 10.212-20.85 12.844-32.836 5.446-24.908 5.083-52 2.224-77.532-2.814-25.095-8.351-49.69-16.339-72.663-15.839-45.695-40.755-85.522-71.798-112.864-31.951-28.154-69.53-41.326-107.38-39.39-37.715 1.933-74.976 18.726-105.928 48.44-7.534 7.241-14.614 15.294-21.24 24.034-4.266 5.493-10.666-3.309-6.445-8.865Z"/>
</svg>
